<?xml version="1.0" encoding="UTF-8"?>
<!DOCTYPE svg PUBLIC "-//W3C//DTD SVG 1.1//EN" "http://www.w3.org/Graphics/SVG/1.1/DTD/svg11.dtd">
<svg xmlns="http://www.w3.org/2000/svg" version="1.1" width="500px" height="500px" style="shape-rendering:geometricPrecision; text-rendering:geometricPrecision; image-rendering:optimizeQuality; fill-rule:evenodd; clip-rule:evenodd" xmlns:xlink="http://www.w3.org/1999/xlink">
<g><path style="opacity:1" fill="#abe0ae" d="M -0.5,-0.5 C 166.167,-0.5 332.833,-0.5 499.5,-0.5C 499.5,166.167 499.5,332.833 499.5,499.5C 332.833,499.5 166.167,499.5 -0.5,499.5C -0.5,332.833 -0.5,166.167 -0.5,-0.5 Z"/></g>
<g><path style="opacity:1" fill="#e8e8e8" d="M 242.5,92.5 C 238.338,96.1803 238.672,96.847 243.5,94.5C 244.086,94.7093 244.586,95.0426 245,95.5C 259.255,92.4016 273.421,93.0683 287.5,97.5C 288.025,98.1924 288.692,98.6924 289.5,99C 286.762,100.896 283.762,102.229 280.5,103C 280.864,107.302 282.364,111.135 285,114.5C 285.414,114.043 285.914,113.709 286.5,113.5C 286.833,114.5 287.167,115.5 287.5,116.5C 286.905,119.14 286.572,121.807 286.5,124.5C 284.265,124.205 282.265,124.539 280.5,125.5C 274.03,125.133 267.697,123.967 261.5,122C 262.167,121.667 262.833,121.333 263.5,121C 261.992,119.493 260.659,117.827 259.5,116C 260.167,115.667 260.833,115.333 261.5,115C 260.359,114.259 260.359,113.425 261.5,112.5C 258.267,109.905 257.267,106.738 258.5,103C 256.285,101.609 256.285,99.9426 258.5,98C 255.028,96.4201 251.362,96.0867 247.5,97C 243.653,97.6334 239.986,98.4667 236.5,99.5C 234.221,100.651 231.888,101.651 229.5,102.5C 226.145,102.69 223.145,103.69 220.5,105.5C 218.948,106.622 217.282,107.122 215.5,107C 218.69,104.636 221.69,102.136 224.5,99.5C 230.053,96.0582 236.053,93.7248 242.5,92.5 Z"/></g>
<g><path style="opacity:1" fill="#f1f1f0" d="M 378.5,175.5 C 378.5,173.5 378.5,171.5 378.5,169.5C 379.222,169.082 379.722,168.416 380,167.5C 380.667,164.833 380.667,162.167 380,159.5C 376.97,161.296 375.47,163.963 375.5,167.5C 373.143,167.337 370.81,167.503 368.5,168C 365.543,169.977 362.543,171.811 359.5,173.5C 356.698,174.536 354.032,175.87 351.5,177.5C 349.93,176.441 348.597,176.941 347.5,179C 345.19,179.497 342.857,179.663 340.5,179.5C 340.784,177.585 340.451,175.919 339.5,174.5C 339.053,168.926 337.719,163.593 335.5,158.5C 334.502,154.495 332.502,151.161 329.5,148.5C 325.792,142.952 320.792,138.786 314.5,136C 304.534,131.759 294.201,128.926 283.5,127.5C 282.71,126.599 281.71,125.932 280.5,125.5C 282.265,124.539 284.265,124.205 286.5,124.5C 286.572,121.807 286.905,119.14 287.5,116.5C 287.167,115.5 286.833,114.5 286.5,113.5C 285.914,113.709 285.414,114.043 285,114.5C 282.364,111.135 280.864,107.302 280.5,103C 283.762,102.229 286.762,100.896 289.5,99C 288.692,98.6924 288.025,98.1924 287.5,97.5C 273.421,93.0683 259.255,92.4016 245,95.5C 244.586,95.0426 244.086,94.7093 243.5,94.5C 238.672,96.847 238.338,96.1803 242.5,92.5C 275.259,83.1566 303.759,90.49 328,114.5C 332.555,120.055 336.721,125.888 340.5,132C 355.228,128.886 367.395,133.052 377,144.5C 382.369,154.708 382.869,165.041 378.5,175.5 Z"/></g>
<g><path style="opacity:1" fill="#d7d8d8" d="M 280.5,125.5 C 281.71,125.932 282.71,126.599 283.5,127.5C 283.167,127.5 282.833,127.5 282.5,127.5C 278.881,126.756 275.215,126.423 271.5,126.5C 262.648,125.282 253.648,124.282 244.5,123.5C 243.738,122.372 243.071,121.205 242.5,120C 243.608,114.427 242.942,108.427 240.5,102C 241.167,101.667 241.833,101.333 242.5,101C 240.75,99.6814 238.75,99.1814 236.5,99.5C 239.986,98.4667 243.653,97.6334 247.5,97C 251.362,96.0867 255.028,96.4201 258.5,98C 256.285,99.9426 256.285,101.609 258.5,103C 257.267,106.738 258.267,109.905 261.5,112.5C 260.359,113.425 260.359,114.259 261.5,115C 260.833,115.333 260.167,115.667 259.5,116C 260.659,117.827 261.992,119.493 263.5,121C 262.833,121.333 262.167,121.667 261.5,122C 267.697,123.967 274.03,125.133 280.5,125.5 Z"/></g>
<g><path style="opacity:1" fill="#a9a9a9" d="M 229.5,102.5 C 230.552,102.351 231.552,102.517 232.5,103C 230.588,104.2 229.255,105.867 228.5,108C 229.167,112.333 229.833,116.667 230.5,121C 229.74,122.441 229.074,123.941 228.5,125.5C 232.107,126.489 235.774,126.823 239.5,126.5C 234.256,127.811 228.923,129.144 223.5,130.5C 221.8,130.374 220.3,129.707 219,128.5C 218.055,128.905 217.388,129.572 217,130.5C 217.672,124.308 218.839,118.141 220.5,112C 220.355,111.228 220.022,110.561 219.5,110C 220.636,108.47 221.636,107.137 222.5,106C 221.906,105.536 221.239,105.369 220.5,105.5C 223.145,103.69 226.145,102.69 229.5,102.5 Z"/></g>
<g><path style="opacity:1" fill="#292929" d="M 137.5,115.5 C 137.5,115.833 137.5,116.167 137.5,116.5C 137.215,119.829 137.882,122.829 139.5,125.5C 139.5,125.833 139.5,126.167 139.5,126.5C 139.357,128.262 139.691,129.929 140.5,131.5C 138.813,132.568 137.146,132.401 135.5,131C 135.957,130.586 136.291,130.086 136.5,129.5C 135.066,128.77 133.9,127.77 133,126.5C 131.13,121.36 131.297,116.36 133.5,111.5C 132.355,110.109 132.355,108.776 133.5,107.5C 134.086,107.709 134.586,108.043 135,108.5C 134.97,111.361 135.803,113.695 137.5,115.5 Z"/></g>
<g><path style="opacity:1" fill="#939593" d="M 224.5,99.5 C 221.69,102.136 218.69,104.636 215.5,107C 217.282,107.122 218.948,106.622 220.5,105.5C 221.239,105.369 221.906,105.536 222.5,106C 221.636,107.137 220.636,108.47 219.5,110C 220.022,110.561 220.355,111.228 220.5,112C 218.839,118.141 217.672,124.308 217,130.5C 217.388,129.572 218.055,128.905 219,128.5C 220.3,129.707 221.8,130.374 223.5,130.5C 221.343,131.407 219.01,132.073 216.5,132.5C 214.688,132.229 213.022,131.562 211.5,130.5C 212.025,129.808 212.692,129.308 213.5,129C 213.167,128.667 212.833,128.333 212.5,128C 214.39,123.337 215.223,118.503 215,113.5C 214.71,115.044 214.044,116.377 213,117.5C 212.658,115.182 213.158,113.015 214.5,111C 212.831,110.878 211.165,111.212 209.5,112C 207.63,114.04 205.63,115.873 203.5,117.5C 208.658,109.342 215.658,103.342 224.5,99.5 Z"/></g>
<g><path style="opacity:1" fill="#464e47" d="M 157.5,111.5 C 157.81,114.713 157.477,117.713 156.5,120.5C 156.663,118.143 156.497,115.81 156,113.5C 155.623,114.942 154.79,115.942 153.5,116.5C 153.39,113.941 154.056,111.608 155.5,109.5C 156.182,110.243 156.849,110.909 157.5,111.5 Z"/></g>
<g><path style="opacity:1" fill="#b1c4b3" d="M 157.5,111.5 C 158.161,113.134 158.494,114.967 158.5,117C 158.64,120.15 157.973,122.983 156.5,125.5C 156.5,123.833 156.5,122.167 156.5,120.5C 157.477,117.713 157.81,114.713 157.5,111.5 Z"/></g>
<g><path style="opacity:1" fill="#babbbb" d="M 236.5,99.5 C 238.75,99.1814 240.75,99.6814 242.5,101C 241.833,101.333 241.167,101.667 240.5,102C 242.942,108.427 243.608,114.427 242.5,120C 243.071,121.205 243.738,122.372 244.5,123.5C 253.648,124.282 262.648,125.282 271.5,126.5C 260.833,126.5 250.167,126.5 239.5,126.5C 235.774,126.823 232.107,126.489 228.5,125.5C 229.074,123.941 229.74,122.441 230.5,121C 229.833,116.667 229.167,112.333 228.5,108C 229.255,105.867 230.588,104.2 232.5,103C 231.552,102.517 230.552,102.351 229.5,102.5C 231.888,101.651 234.221,100.651 236.5,99.5 Z"/></g>
<g><path style="opacity:1" fill="#586d5a" d="M 137.5,116.5 C 138.913,119.219 139.58,122.219 139.5,125.5C 137.882,122.829 137.215,119.829 137.5,116.5 Z"/></g>
<g><path style="opacity:1" fill="#7e7e7e" d="M 216.5,132.5 C 210.634,135.04 205.634,138.707 201.5,143.5C 200.957,143.44 200.624,143.107 200.5,142.5C 201.074,140.941 201.74,139.441 202.5,138C 201.833,137.667 201.167,137.333 200.5,137C 203.653,132.407 205.32,127.24 205.5,121.5C 204.965,119.899 203.965,119.399 202.5,120C 199.969,123.358 197.302,126.524 194.5,129.5C 194.5,128.833 194.5,128.167 194.5,127.5C 197.032,123.789 200.032,120.456 203.5,117.5C 205.63,115.873 207.63,114.04 209.5,112C 211.165,111.212 212.831,110.878 214.5,111C 213.158,113.015 212.658,115.182 213,117.5C 214.044,116.377 214.71,115.044 215,113.5C 215.223,118.503 214.39,123.337 212.5,128C 212.833,128.333 213.167,128.667 213.5,129C 212.692,129.308 212.025,129.808 211.5,130.5C 213.022,131.562 214.688,132.229 216.5,132.5 Z"/></g>
<g><path style="opacity:1" fill="#535753" d="M 132.5,137.5 C 133.167,139.167 133.833,140.833 134.5,142.5C 132.947,140.615 130.947,139.615 128.5,139.5C 125.224,140.122 123.891,142.122 124.5,145.5C 118.114,138.423 111.947,131.09 106,123.5C 105.262,120.788 105.929,118.455 108,116.5C 114.524,124.022 121.357,131.189 128.5,138C 129.928,138.579 131.262,138.412 132.5,137.5 Z"/></g>
<g><path style="opacity:1" fill="#cccecc" d="M 194.5,127.5 C 194.5,128.167 194.5,128.833 194.5,129.5C 193.662,129.842 193.328,130.508 193.5,131.5C 192.027,127.967 190.361,128.301 188.5,132.5C 183.76,133.704 179.427,135.704 175.5,138.5C 173.29,135.728 172.457,132.728 173,129.5C 171.586,128.587 170.086,128.587 168.5,129.5C 172.549,125.936 177.382,124.269 183,124.5C 187.119,124.48 190.952,125.48 194.5,127.5 Z"/></g>
<g><path style="opacity:1" fill="#8f908f" d="M 289.5,130.5 C 291.53,132.551 291.697,135.217 290,138.5C 288.202,142.462 285.702,145.796 282.5,148.5C 280.929,146.365 279.596,144.032 278.5,141.5C 279.259,137.523 279.925,133.523 280.5,129.5C 283.713,129.19 286.713,129.523 289.5,130.5 Z"/></g>
<g><path style="opacity:1" fill="#434844" d="M 137.5,115.5 C 135.803,113.695 134.97,111.361 135,108.5C 134.586,108.043 134.086,107.709 133.5,107.5C 132.355,108.776 132.355,110.109 133.5,111.5C 131.297,116.36 131.13,121.36 133,126.5C 133.9,127.77 135.066,128.77 136.5,129.5C 136.291,130.086 135.957,130.586 135.5,131C 137.146,132.401 138.813,132.568 140.5,131.5C 139.691,129.929 139.357,128.262 139.5,126.5C 141.268,129.606 142.768,132.939 144,136.5C 145.356,137.38 146.856,137.714 148.5,137.5C 148.263,136.209 148.596,135.209 149.5,134.5C 149.729,136.433 150.562,138.1 152,139.5C 152.607,144.92 151.274,145.587 148,141.5C 147.517,140.552 147.351,139.552 147.5,138.5C 142.605,139.425 139.105,137.758 137,133.5C 136.502,135.544 135.335,136.878 133.5,137.5C 133.804,136.85 134.137,136.183 134.5,135.5C 132.751,132.449 131.751,129.116 131.5,125.5C 130.466,118.865 129.8,112.199 129.5,105.5C 135.769,105.693 138.436,109.026 137.5,115.5 Z"/></g>
<g><path style="opacity:1" fill="#626262" d="M 282.5,127.5 C 282.833,127.5 283.167,127.5 283.5,127.5C 294.201,128.926 304.534,131.759 314.5,136C 320.792,138.786 325.792,142.952 329.5,148.5C 325.538,144.185 320.871,140.852 315.5,138.5C 310.129,135.709 304.462,133.709 298.5,132.5C 295.727,131.343 292.727,130.676 289.5,130.5C 286.713,129.523 283.713,129.19 280.5,129.5C 279.925,133.523 279.259,137.523 278.5,141.5C 276.06,138.85 276.06,136.016 278.5,133C 278.241,131.739 277.574,130.739 276.5,130C 278.723,129.434 280.723,128.6 282.5,127.5 Z"/></g>
<g><path style="opacity:1" fill="#717371" d="M 162.5,133.5 C 163.289,133.783 163.956,134.283 164.5,135C 163.424,136.726 163.257,138.559 164,140.5C 164.671,141.252 165.504,141.586 166.5,141.5C 163.386,143.542 160.052,145.209 156.5,146.5C 155.833,145.833 155.167,145.167 154.5,144.5C 156.072,142.056 157.572,139.39 159,136.5C 160.039,135.29 161.206,134.29 162.5,133.5 Z"/></g>
<g><path style="opacity:1" fill="#bebebe" d="M 298.5,132.5 C 304.462,133.709 310.129,135.709 315.5,138.5C 317.153,141.144 319.487,143.144 322.5,144.5C 322.085,147.298 321.251,150.298 320,153.5C 314.376,154.717 308.376,154.717 302,153.5C 300.955,152.32 299.455,151.32 297.5,150.5C 296.862,148.201 295.862,146.034 294.5,144C 296.291,141.586 297.957,139.086 299.5,136.5C 298.96,135.252 298.293,134.085 297.5,133C 297.728,132.601 298.062,132.435 298.5,132.5 Z"/></g>
<g><path style="opacity:1" fill="#6d796e" d="M 112.5,146.5 C 111.506,147.999 111.506,149.666 112.5,151.5C 106.488,148.661 101.154,144.827 96.5,140C 101.949,141.892 107.283,144.058 112.5,146.5 Z"/></g>
<g><path style="opacity:1" fill="#1f201f" d="M 156.5,120.5 C 156.5,122.167 156.5,123.833 156.5,125.5C 155.298,129.048 154.631,132.715 154.5,136.5C 153.523,139.287 153.19,142.287 153.5,145.5C 149.818,145.665 146.152,145.499 142.5,145C 142.002,143.842 141.169,143.009 140,142.5C 138.003,143.66 136.169,143.66 134.5,142.5C 133.833,140.833 133.167,139.167 132.5,137.5C 132.833,137.5 133.167,137.5 133.5,137.5C 135.335,136.878 136.502,135.544 137,133.5C 139.105,137.758 142.605,139.425 147.5,138.5C 147.351,139.552 147.517,140.552 148,141.5C 151.274,145.587 152.607,144.92 152,139.5C 150.562,138.1 149.729,136.433 149.5,134.5C 149.704,128.134 151.037,122.134 153.5,116.5C 154.79,115.942 155.623,114.942 156,113.5C 156.497,115.81 156.663,118.143 156.5,120.5 Z"/></g>
<g><path style="opacity:1" fill="#ababab" d="M 175.5,138.5 C 175.56,139.043 175.893,139.376 176.5,139.5C 179.148,137.342 182.148,136.008 185.5,135.5C 185.477,139.542 184.311,143.208 182,146.5C 181.092,148.439 179.592,149.439 177.5,149.5C 178.382,156.975 176.048,158.308 170.5,153.5C 168.917,151.554 168.417,149.554 169,147.5C 168.023,148.774 167.189,148.774 166.5,147.5C 168.916,145.295 168.916,143.295 166.5,141.5C 165.504,141.586 164.671,141.252 164,140.5C 163.257,138.559 163.424,136.726 164.5,135C 163.956,134.283 163.289,133.783 162.5,133.5C 163.708,130.956 165.708,129.622 168.5,129.5C 170.086,128.587 171.586,128.587 173,129.5C 172.457,132.728 173.29,135.728 175.5,138.5 Z"/></g>
<g><path style="opacity:1" fill="#505750" d="M 112.5,146.5 C 115.88,148.238 119.547,149.238 123.5,149.5C 122.135,151.751 122.469,153.751 124.5,155.5C 120.224,154.68 116.224,153.347 112.5,151.5C 111.506,149.666 111.506,147.999 112.5,146.5 Z"/></g>
<g><path style="opacity:1" fill="#a9abaa" d="M 289.5,130.5 C 292.727,130.676 295.727,131.343 298.5,132.5C 298.062,132.435 297.728,132.601 297.5,133C 298.293,134.085 298.96,135.252 299.5,136.5C 297.957,139.086 296.291,141.586 294.5,144C 295.862,146.034 296.862,148.201 297.5,150.5C 299.455,151.32 300.955,152.32 302,153.5C 308.376,154.717 314.376,154.717 320,153.5C 321.251,150.298 322.085,147.298 322.5,144.5C 319.487,143.144 317.153,141.144 315.5,138.5C 320.871,140.852 325.538,144.185 329.5,148.5C 329.557,149.609 329.89,150.609 330.5,151.5C 330.141,153.485 329.308,154.151 328,153.5C 326.007,155.616 323.841,157.616 321.5,159.5C 312.289,158.936 303.122,157.936 294,156.5C 291.472,156.725 288.972,157.058 286.5,157.5C 284.93,154.686 283.597,151.686 282.5,148.5C 285.702,145.796 288.202,142.462 290,138.5C 291.697,135.217 291.53,132.551 289.5,130.5 Z"/></g>
<g><path style="opacity:1" fill="#595959" d="M 329.5,148.5 C 332.502,151.161 334.502,154.495 335.5,158.5C 334.833,159.5 334.167,160.5 333.5,161.5C 333.976,157.622 332.976,154.288 330.5,151.5C 329.89,150.609 329.557,149.609 329.5,148.5 Z"/></g>
<g><path style="opacity:1" fill="#3d3d3d" d="M 154.5,136.5 C 154.5,139.167 154.5,141.833 154.5,144.5C 155.167,145.167 155.833,145.833 156.5,146.5C 156.092,147.643 155.425,148.643 154.5,149.5C 150.34,147.635 147.673,148.968 146.5,153.5C 148.404,155.516 150.571,157.182 153,158.5C 153.383,157.944 153.883,157.611 154.5,157.5C 154.67,158.822 154.337,159.989 153.5,161C 150.439,163.035 147.105,164.201 143.5,164.5C 136.517,165.778 130.517,164.112 125.5,159.5C 124.766,158.292 124.433,156.959 124.5,155.5C 126.604,155.799 128.604,155.466 130.5,154.5C 125.233,151.716 125.233,148.883 130.5,146C 129.174,143.71 128.508,141.543 128.5,139.5C 130.947,139.615 132.947,140.615 134.5,142.5C 136.169,143.66 138.003,143.66 140,142.5C 141.169,143.009 142.002,143.842 142.5,145C 146.152,145.499 149.818,145.665 153.5,145.5C 153.19,142.287 153.523,139.287 154.5,136.5 Z"/></g>
<g><path style="opacity:1" fill="#212121" d="M 128.5,139.5 C 128.508,141.543 129.174,143.71 130.5,146C 125.233,148.883 125.233,151.716 130.5,154.5C 128.604,155.466 126.604,155.799 124.5,155.5C 122.469,153.751 122.135,151.751 123.5,149.5C 123.833,148.167 124.167,146.833 124.5,145.5C 123.891,142.122 125.224,140.122 128.5,139.5 Z"/></g>
<g><path style="opacity:1" fill="#1d1e1d" d="M 166.5,141.5 C 168.916,143.295 168.916,145.295 166.5,147.5C 164.403,150.053 162.07,152.386 159.5,154.5C 158.078,155.925 156.411,156.925 154.5,157.5C 153.883,157.611 153.383,157.944 153,158.5C 150.571,157.182 148.404,155.516 146.5,153.5C 147.673,148.968 150.34,147.635 154.5,149.5C 155.425,148.643 156.092,147.643 156.5,146.5C 160.052,145.209 163.386,143.542 166.5,141.5 Z"/></g>
<g><path style="opacity:1" fill="#928e8c" d="M 193.5,131.5 C 193.162,135.356 191.662,138.689 189,141.5C 188.667,140.167 188.333,138.833 188,137.5C 184.544,143.25 182.044,149.416 180.5,156C 178.191,158.465 176.191,161.132 174.5,164C 175.056,164.383 175.389,164.883 175.5,165.5C 169.975,163.299 165.308,159.966 161.5,155.5C 161.158,154.662 160.492,154.328 159.5,154.5C 162.07,152.386 164.403,150.053 166.5,147.5C 167.189,148.774 168.023,148.774 169,147.5C 168.417,149.554 168.917,151.554 170.5,153.5C 176.048,158.308 178.382,156.975 177.5,149.5C 179.592,149.439 181.092,148.439 182,146.5C 184.311,143.208 185.477,139.542 185.5,135.5C 182.148,136.008 179.148,137.342 176.5,139.5C 175.893,139.376 175.56,139.043 175.5,138.5C 179.427,135.704 183.76,133.704 188.5,132.5C 190.361,128.301 192.027,127.967 193.5,131.5 Z"/></g>
<g><path style="opacity:1" fill="#2b2829" d="M 199.5,146.5 C 199.714,148.144 199.38,149.644 198.5,151C 200.623,152.194 202.957,152.86 205.5,153C 207.661,158.141 206.161,160.308 201,159.5C 200.508,160.549 200.674,161.549 201.5,162.5C 200.807,163.518 200.141,164.518 199.5,165.5C 198.017,163.906 196.517,162.24 195,160.5C 193.893,161.712 193.393,161.379 193.5,159.5C 194.361,154.557 196.361,150.224 199.5,146.5 Z"/></g>
<g><path style="opacity:1" fill="#959394" d="M 330.5,151.5 C 332.976,154.288 333.976,157.622 333.5,161.5C 332.571,162.315 331.571,163.148 330.5,164C 322.688,164.877 315.021,165.711 307.5,166.5C 306.833,166.5 306.167,166.5 305.5,166.5C 304.448,164.744 302.781,164.077 300.5,164.5C 300.5,162.5 300.5,160.5 300.5,158.5C 298.533,158.261 296.699,158.594 295,159.5C 294.503,161.81 294.337,164.143 294.5,166.5C 294.5,166.833 294.5,167.167 294.5,167.5C 294.167,167.5 293.833,167.5 293.5,167.5C 291.5,167.5 289.5,167.5 287.5,167.5C 287.54,164.119 287.207,160.786 286.5,157.5C 288.972,157.058 291.472,156.725 294,156.5C 303.122,157.936 312.289,158.936 321.5,159.5C 323.841,157.616 326.007,155.616 328,153.5C 329.308,154.151 330.141,153.485 330.5,151.5 Z"/></g>
<g><path style="opacity:1" fill="#d7d6d7" d="M 159.5,154.5 C 160.492,154.328 161.158,154.662 161.5,155.5C 161.5,157.167 161.5,158.833 161.5,160.5C 161.371,162.216 161.038,163.883 160.5,165.5C 157.68,169.081 154.014,171.415 149.5,172.5C 145.265,171.772 141.931,169.605 139.5,166C 141.058,165.79 142.391,165.29 143.5,164.5C 147.105,164.201 150.439,163.035 153.5,161C 154.337,159.989 154.67,158.822 154.5,157.5C 156.411,156.925 158.078,155.925 159.5,154.5 Z"/></g>
<g><path style="opacity:1" fill="#787472" d="M 201.5,143.5 C 200.833,144.5 200.167,145.5 199.5,146.5C 196.361,150.224 194.361,154.557 193.5,159.5C 191.627,163.515 190.627,167.849 190.5,172.5C 186.845,172.528 184.178,170.861 182.5,167.5C 180.382,166.054 178.049,165.387 175.5,165.5C 175.389,164.883 175.056,164.383 174.5,164C 176.191,161.132 178.191,158.465 180.5,156C 182.044,149.416 184.544,143.25 188,137.5C 188.333,138.833 188.667,140.167 189,141.5C 191.662,138.689 193.162,135.356 193.5,131.5C 193.328,130.508 193.662,129.842 194.5,129.5C 197.302,126.524 199.969,123.358 202.5,120C 203.965,119.399 204.965,119.899 205.5,121.5C 205.32,127.24 203.653,132.407 200.5,137C 201.167,137.333 201.833,137.667 202.5,138C 201.74,139.441 201.074,140.941 200.5,142.5C 200.624,143.107 200.957,143.44 201.5,143.5 Z"/></g>
<g><path style="opacity:1" fill="#e29fc8" d="M 305.5,166.5 C 305.5,167.833 305.5,169.167 305.5,170.5C 303.833,170.5 302.167,170.5 300.5,170.5C 302.41,169.316 302.743,167.816 301.5,166C 299.402,165.322 297.402,165.489 295.5,166.5C 295.167,166.5 294.833,166.5 294.5,166.5C 294.337,164.143 294.503,161.81 295,159.5C 296.699,158.594 298.533,158.261 300.5,158.5C 300.5,160.5 300.5,162.5 300.5,164.5C 302.781,164.077 304.448,164.744 305.5,166.5 Z"/></g>
<g><path style="opacity:1" fill="#959695" d="M 125.5,159.5 C 130.517,164.112 136.517,165.778 143.5,164.5C 142.391,165.29 141.058,165.79 139.5,166C 141.931,169.605 145.265,171.772 149.5,172.5C 148.5,173.167 147.5,173.833 146.5,174.5C 142.395,174.766 138.395,174.266 134.5,173C 131.186,171.113 128.186,168.946 125.5,166.5C 126.686,164.208 126.686,161.874 125.5,159.5 Z"/></g>
<g><path style="opacity:1" fill="#403f3f" d="M 193.5,159.5 C 193.393,161.379 193.893,161.712 195,160.5C 196.517,162.24 198.017,163.906 199.5,165.5C 200.73,167.297 201.396,169.297 201.5,171.5C 200.442,172.6 199.608,173.934 199,175.5C 196.657,173.656 194.49,171.656 192.5,169.5C 191.824,170.602 191.158,171.602 190.5,172.5C 190.627,167.849 191.627,163.515 193.5,159.5 Z"/></g>
<g><path style="opacity:1" fill="#ead7d8" d="M 378.5,169.5 C 378.657,168.127 378.49,166.793 378,165.5C 378.092,171.612 376.259,176.945 372.5,181.5C 371.119,179.309 369.119,177.976 366.5,177.5C 367.939,175.657 367.772,173.99 366,172.5C 363.884,172.429 361.717,172.762 359.5,173.5C 362.543,171.811 365.543,169.977 368.5,168C 370.81,167.503 373.143,167.337 375.5,167.5C 375.47,163.963 376.97,161.296 380,159.5C 380.667,162.167 380.667,164.833 380,167.5C 379.722,168.416 379.222,169.082 378.5,169.5 Z"/></g>
<g><path style="opacity:1" fill="#e96ebe" d="M 300.5,170.5 C 300.5,171.167 300.5,171.833 300.5,172.5C 298.958,173.301 297.292,173.634 295.5,173.5C 295.5,171.167 295.5,168.833 295.5,166.5C 297.402,165.489 299.402,165.322 301.5,166C 302.743,167.816 302.41,169.316 300.5,170.5 Z"/></g>
<g><path style="opacity:1" fill="#b6669c" d="M 294.5,166.5 C 294.833,166.5 295.167,166.5 295.5,166.5C 295.5,168.833 295.5,171.167 295.5,173.5C 297.292,173.634 298.958,173.301 300.5,172.5C 300.5,173.5 300.5,174.5 300.5,175.5C 298.5,175.5 296.5,175.5 294.5,175.5C 294.5,172.833 294.5,170.167 294.5,167.5C 294.5,167.167 294.5,166.833 294.5,166.5 Z"/></g>
<g><path style="opacity:1" fill="#250d19" d="M 305.5,166.5 C 306.167,166.5 306.833,166.5 307.5,166.5C 308.239,166.369 308.906,166.536 309.5,167C 308.228,168.307 307.228,169.807 306.5,171.5C 305.264,172.246 303.93,172.579 302.5,172.5C 302.616,175.91 300.95,177.244 297.5,176.5C 295.801,176.66 294.134,176.494 292.5,176C 292.19,173.3 292.523,170.467 293.5,167.5C 293.833,167.5 294.167,167.5 294.5,167.5C 294.5,170.167 294.5,172.833 294.5,175.5C 296.5,175.5 298.5,175.5 300.5,175.5C 300.5,174.5 300.5,173.5 300.5,172.5C 300.5,171.833 300.5,171.167 300.5,170.5C 302.167,170.5 303.833,170.5 305.5,170.5C 305.5,169.167 305.5,167.833 305.5,166.5 Z"/></g>
<g><path style="opacity:1" fill="#353535" d="M 160.5,165.5 C 164.203,176.629 160.203,182.462 148.5,183C 140.202,181.332 139.535,178.499 146.5,174.5C 147.5,173.833 148.5,173.167 149.5,172.5C 154.014,171.415 157.68,169.081 160.5,165.5 Z"/></g>
<g><path style="opacity:1" fill="#906566" d="M 170.5,175.5 C 170.5,174.833 170.5,174.167 170.5,173.5C 170.337,171.143 170.503,168.81 171,166.5C 187.011,168.661 191.844,177.495 185.5,193C 187.045,194.641 186.711,195.807 184.5,196.5C 183.833,190.5 183.167,184.5 182.5,178.5C 181.5,179.167 180.5,179.833 179.5,180.5C 176.378,179.018 173.378,177.351 170.5,175.5 Z"/></g>
<g><path style="opacity:1" fill="#d8c2c3" d="M 378.5,169.5 C 378.5,171.5 378.5,173.5 378.5,175.5C 374.261,184.453 367.261,189.787 357.5,191.5C 359.426,189.707 361.759,188.707 364.5,188.5C 362.638,181.977 358.305,178.977 351.5,179.5C 351.5,178.833 351.5,178.167 351.5,177.5C 354.032,175.87 356.698,174.536 359.5,173.5C 361.717,172.762 363.884,172.429 366,172.5C 367.772,173.99 367.939,175.657 366.5,177.5C 369.119,177.976 371.119,179.309 372.5,181.5C 376.259,176.945 378.092,171.612 378,165.5C 378.49,166.793 378.657,168.127 378.5,169.5 Z"/></g>
<g><path style="opacity:1" fill="#524b48" d="M 167.5,177.5 C 167.5,177.833 167.5,178.167 167.5,178.5C 164.984,182.674 161.317,185.341 156.5,186.5C 159.827,183.182 163.493,180.182 167.5,177.5 Z"/></g>
<g><path style="opacity:1" fill="#ead9db" d="M 339.5,174.5 C 340.451,175.919 340.784,177.585 340.5,179.5C 342.857,179.663 345.19,179.497 347.5,179C 348.597,176.941 349.93,176.441 351.5,177.5C 351.5,178.167 351.5,178.833 351.5,179.5C 351.261,183.842 350.927,188.176 350.5,192.5C 349.243,196.441 348.076,200.441 347,204.5C 344.653,209.207 341.819,213.54 338.5,217.5C 338.5,216.167 338.5,214.833 338.5,213.5C 335.142,214.55 331.809,215.55 328.5,216.5C 325.99,216.124 323.657,215.29 321.5,214C 322.888,213.111 322.722,212.611 321,212.5C 317.189,213.289 313.356,213.123 309.5,212C 310.737,211.768 311.737,211.268 312.5,210.5C 331.192,205.788 340.192,193.788 339.5,174.5 Z"/></g>
<g><path style="opacity:1" fill="#12100e" d="M 161.5,160.5 C 167.503,163.171 169.836,167.838 168.5,174.5C 167.89,175.391 167.557,176.391 167.5,177.5C 163.493,180.182 159.827,183.182 156.5,186.5C 154.228,187.319 151.894,187.985 149.5,188.5C 144.101,188.691 138.767,188.191 133.5,187C 131.34,185.668 129.34,184.168 127.5,182.5C 124.425,177.499 123.759,172.165 125.5,166.5C 128.186,168.946 131.186,171.113 134.5,173C 138.395,174.266 142.395,174.766 146.5,174.5C 139.535,178.499 140.202,181.332 148.5,183C 160.203,182.462 164.203,176.629 160.5,165.5C 161.038,163.883 161.371,162.216 161.5,160.5 Z"/></g>
<g><path style="opacity:1" fill="#cdacb0" d="M 351.5,179.5 C 358.305,178.977 362.638,181.977 364.5,188.5C 361.759,188.707 359.426,189.707 357.5,191.5C 355.393,192.468 353.059,192.802 350.5,192.5C 350.927,188.176 351.261,183.842 351.5,179.5 Z"/></g>
<g><path style="opacity:1" fill="#abddad" d="M 191.5,213.5 C 195.814,218.632 201.148,222.466 207.5,225C 217.327,229.566 227.66,232.233 238.5,233C 239.984,233.662 241.317,234.496 242.5,235.5C 244.176,236.183 244.843,237.517 244.5,239.5C 241.615,239.194 238.948,239.527 236.5,240.5C 235.094,240.973 234.427,241.973 234.5,243.5C 227.579,244.297 220.579,244.797 213.5,245C 207.638,247.791 201.638,249.625 195.5,250.5C 193.164,252.391 190.498,252.891 187.5,252C 184.635,248.308 181.635,244.808 178.5,241.5C 176.885,238.55 174.885,235.884 172.5,233.5C 172.461,232.417 172.127,231.417 171.5,230.5C 173.082,228.985 174.416,227.319 175.5,225.5C 176.222,225.082 176.722,224.416 177,223.5C 177.82,216.986 177.653,210.653 176.5,204.5C 176.461,200.267 175.795,196.267 174.5,192.5C 174.672,191.508 174.338,190.842 173.5,190.5C 173.5,188.5 173.5,186.5 173.5,184.5C 176.365,184.055 178.865,184.722 181,186.5C 181.306,196.947 184.806,205.947 191.5,213.5 Z"/></g>
<g><path style="opacity:1" fill="#100f0f" d="M 201.5,171.5 C 200.449,177.793 201.949,178.793 206,174.5C 206.388,175.428 207.055,176.095 208,176.5C 209.235,175.385 210.402,175.385 211.5,176.5C 212.816,173.972 213.983,173.972 215,176.5C 215.561,175.978 216.228,175.645 217,175.5C 218.66,176.829 220.493,177.829 222.5,178.5C 224.205,176.445 225.872,176.778 227.5,179.5C 226.624,180.251 225.624,180.751 224.5,181C 225.624,181.249 226.624,181.749 227.5,182.5C 226.985,184.225 226.318,185.892 225.5,187.5C 223.786,186.391 223.119,187.058 223.5,189.5C 227.192,190.029 227.858,191.529 225.5,194C 226.112,195.303 226.446,196.47 226.5,197.5C 227.833,196.833 229.167,196.167 230.5,195.5C 232.167,196.833 233.833,196.833 235.5,195.5C 237.059,196.074 238.559,196.74 240,197.5C 240.308,196.692 240.808,196.025 241.5,195.5C 242.548,196.548 243.548,197.548 244.5,198.5C 244.565,198.938 244.399,199.272 244,199.5C 241.876,198.773 239.709,198.106 237.5,197.5C 235.568,198.366 233.568,199.033 231.5,199.5C 228.91,201.383 226.577,203.55 224.5,206C 225.5,206.333 226.5,206.667 227.5,207C 223.812,207.45 220.146,207.283 216.5,206.5C 216.649,205.448 216.483,204.448 216,203.5C 213.959,204.423 211.792,204.756 209.5,204.5C 196.051,198.295 189.717,187.629 190.5,172.5C 191.158,171.602 191.824,170.602 192.5,169.5C 194.49,171.656 196.657,173.656 199,175.5C 199.608,173.934 200.442,172.6 201.5,171.5 Z"/></g>
<g><path style="opacity:1" fill="#110f10" d="M 335.5,158.5 C 337.719,163.593 339.053,168.926 339.5,174.5C 340.192,193.788 331.192,205.788 312.5,210.5C 311.167,210.5 309.833,210.5 308.5,210.5C 306.974,209.895 305.974,208.729 305.5,207C 304.552,206.517 303.552,206.351 302.5,206.5C 302.5,205.167 302.5,203.833 302.5,202.5C 300.516,202.617 298.85,201.95 297.5,200.5C 299.423,199.692 301.423,199.192 303.5,199C 301.612,198.102 299.612,197.602 297.5,197.5C 298.568,196.566 299.901,196.232 301.5,196.5C 301.286,194.856 301.62,193.356 302.5,192C 301.551,191.383 300.718,191.549 300,192.5C 299.692,191.692 299.192,191.025 298.5,190.5C 298.167,191.833 297.833,193.167 297.5,194.5C 296.738,193.372 296.071,192.205 295.5,191C 296.264,188.931 296.764,186.764 297,184.5C 298.399,185.227 299.899,185.727 301.5,186C 297.968,187.918 297.968,189.418 301.5,190.5C 301.032,188.887 301.699,187.387 303.5,186C 303.089,183.997 301.755,182.164 299.5,180.5C 298.886,184.07 297.552,184.403 295.5,181.5C 296.605,180.108 297.939,178.941 299.5,178C 298.584,177.722 297.918,177.222 297.5,176.5C 300.95,177.244 302.616,175.91 302.5,172.5C 303.93,172.579 305.264,172.246 306.5,171.5C 307.228,169.807 308.228,168.307 309.5,167C 308.906,166.536 308.239,166.369 307.5,166.5C 315.021,165.711 322.688,164.877 330.5,164C 331.571,163.148 332.571,162.315 333.5,161.5C 334.167,160.5 334.833,159.5 335.5,158.5 Z"/></g>
<g><path style="opacity:1" fill="#0a0708" d="M 239.5,126.5 C 250.167,126.5 260.833,126.5 271.5,126.5C 275.215,126.423 278.881,126.756 282.5,127.5C 280.723,128.6 278.723,129.434 276.5,130C 277.574,130.739 278.241,131.739 278.5,133C 276.06,136.016 276.06,138.85 278.5,141.5C 279.596,144.032 280.929,146.365 282.5,148.5C 283.597,151.686 284.93,154.686 286.5,157.5C 287.207,160.786 287.54,164.119 287.5,167.5C 289.5,167.5 291.5,167.5 293.5,167.5C 292.523,170.467 292.19,173.3 292.5,176C 294.134,176.494 295.801,176.66 297.5,176.5C 297.918,177.222 298.584,177.722 299.5,178C 297.939,178.941 296.605,180.108 295.5,181.5C 297.552,184.403 298.886,184.07 299.5,180.5C 301.755,182.164 303.089,183.997 303.5,186C 301.699,187.387 301.032,188.887 301.5,190.5C 297.968,189.418 297.968,187.918 301.5,186C 299.899,185.727 298.399,185.227 297,184.5C 296.764,186.764 296.264,188.931 295.5,191C 296.071,192.205 296.738,193.372 297.5,194.5C 297.833,193.167 298.167,191.833 298.5,190.5C 299.192,191.025 299.692,191.692 300,192.5C 300.718,191.549 301.551,191.383 302.5,192C 301.62,193.356 301.286,194.856 301.5,196.5C 299.901,196.232 298.568,196.566 297.5,197.5C 294.606,197.042 292.106,197.709 290,199.5C 287.534,198.212 285.034,198.212 282.5,199.5C 281.833,198.833 281.167,198.167 280.5,197.5C 278.774,199.03 276.774,200.03 274.5,200.5C 272.657,200.245 270.657,200.078 268.5,200C 268,199.5 267.5,199 267,198.5C 261.25,199.641 255.416,199.807 249.5,199C 248.333,198.5 247.5,197.667 247,196.5C 246.583,197.756 245.75,198.423 244.5,198.5C 243.548,197.548 242.548,196.548 241.5,195.5C 240.808,196.025 240.308,196.692 240,197.5C 238.559,196.74 237.059,196.074 235.5,195.5C 233.833,196.833 232.167,196.833 230.5,195.5C 229.167,196.167 227.833,196.833 226.5,197.5C 226.446,196.47 226.112,195.303 225.5,194C 227.858,191.529 227.192,190.029 223.5,189.5C 223.119,187.058 223.786,186.391 225.5,187.5C 226.318,185.892 226.985,184.225 227.5,182.5C 226.624,181.749 225.624,181.249 224.5,181C 225.624,180.751 226.624,180.251 227.5,179.5C 225.872,176.778 224.205,176.445 222.5,178.5C 220.493,177.829 218.66,176.829 217,175.5C 216.228,175.645 215.561,175.978 215,176.5C 213.983,173.972 212.816,173.972 211.5,176.5C 210.402,175.385 209.235,175.385 208,176.5C 207.055,176.095 206.388,175.428 206,174.5C 201.949,178.793 200.449,177.793 201.5,171.5C 201.396,169.297 200.73,167.297 199.5,165.5C 200.141,164.518 200.807,163.518 201.5,162.5C 200.674,161.549 200.508,160.549 201,159.5C 206.161,160.308 207.661,158.141 205.5,153C 202.957,152.86 200.623,152.194 198.5,151C 199.38,149.644 199.714,148.144 199.5,146.5C 200.167,145.5 200.833,144.5 201.5,143.5C 205.634,138.707 210.634,135.04 216.5,132.5C 219.01,132.073 221.343,131.407 223.5,130.5C 228.923,129.144 234.256,127.811 239.5,126.5 Z"/></g>
<g><path style="opacity:1" fill="#df70b5" d="M 271.5,189.5 C 271.5,191.167 271.5,192.833 271.5,194.5C 266.167,194.5 260.833,194.5 255.5,194.5C 255.5,192.833 255.5,191.167 255.5,189.5C 260.833,189.5 266.167,189.5 271.5,189.5 Z"/></g>
<g><path style="opacity:1" fill="#d779ae" d="M 272.5,184.5 C 274.167,184.5 275.833,184.5 277.5,184.5C 277.5,186.167 277.5,187.833 277.5,189.5C 275.833,189.5 274.167,189.5 272.5,189.5C 272.5,187.833 272.5,186.167 272.5,184.5 Z"/></g>
<g><path style="opacity:1" fill="#5f2043" d="M 250.5,183.5 C 250.5,185.167 250.5,186.833 250.5,188.5C 252.167,188.5 253.833,188.5 255.5,188.5C 255.5,186.833 255.5,185.167 255.5,183.5C 256.451,184.919 256.784,186.585 256.5,188.5C 261.5,188.5 266.5,188.5 271.5,188.5C 271.232,186.901 271.566,185.568 272.5,184.5C 272.5,186.167 272.5,187.833 272.5,189.5C 272.167,189.5 271.833,189.5 271.5,189.5C 266.167,189.5 260.833,189.5 255.5,189.5C 255.5,191.167 255.5,192.833 255.5,194.5C 254.086,192.946 252.419,191.612 250.5,190.5C 249.203,188.027 249.203,185.693 250.5,183.5 Z"/></g>
<g><path style="opacity:1" fill="#290918" d="M 278.5,190.5 C 278.795,188.265 278.461,186.265 277.5,184.5C 275.833,184.5 274.167,184.5 272.5,184.5C 271.566,185.568 271.232,186.901 271.5,188.5C 266.5,188.5 261.5,188.5 256.5,188.5C 256.784,186.585 256.451,184.919 255.5,183.5C 253.833,183.5 252.167,183.5 250.5,183.5C 253.216,180.866 256.049,180.866 259,183.5C 259.49,184.793 259.657,186.127 259.5,187.5C 262.518,187.665 265.518,187.498 268.5,187C 269.939,186.009 270.939,184.676 271.5,183C 274.507,182.699 277.507,182.865 280.5,183.5C 281.01,186.388 280.344,188.721 278.5,190.5 Z"/></g>
<g><path style="opacity:1" fill="#d47aaf" d="M 250.5,183.5 C 252.167,183.5 253.833,183.5 255.5,183.5C 255.5,185.167 255.5,186.833 255.5,188.5C 253.833,188.5 252.167,188.5 250.5,188.5C 250.5,186.833 250.5,185.167 250.5,183.5 Z"/></g>
<g><path style="opacity:1" fill="#622644" d="M 224.5,166.5 C 224.833,166.5 225.167,166.5 225.5,166.5C 227.099,166.232 228.432,166.566 229.5,167.5C 229.5,168.833 229.5,170.167 229.5,171.5C 231.5,171.5 233.5,171.5 235.5,171.5C 233.393,172.468 231.059,172.802 228.5,172.5C 228.5,171.5 228.5,170.5 228.5,169.5C 226.381,169.532 225.048,168.532 224.5,166.5 Z"/></g>
<g><path style="opacity:1" fill="#e866b8" d="M 229.5,167.5 C 228.432,166.566 227.099,166.232 225.5,166.5C 225.5,164.833 225.5,163.167 225.5,161.5C 227.099,161.768 228.432,161.434 229.5,160.5C 229.833,160.5 230.167,160.5 230.5,160.5C 231.404,159.791 231.737,158.791 231.5,157.5C 232.5,157.5 233.5,157.5 234.5,157.5C 234.665,161.182 234.499,164.848 234,168.5C 232.289,169.581 230.789,169.248 229.5,167.5 Z"/></g>
<g><path style="opacity:1" fill="#944a77" d="M 229.5,160.5 C 228.432,161.434 227.099,161.768 225.5,161.5C 225.5,163.167 225.5,164.833 225.5,166.5C 225.167,166.5 224.833,166.5 224.5,166.5C 224.5,164.5 224.5,162.5 224.5,160.5C 226.167,160.5 227.833,160.5 229.5,160.5 Z"/></g>
<g><path style="opacity:1" fill="#2c0c1e" d="M 235.5,171.5 C 236.084,166.501 236.251,161.501 236,156.5C 234.301,155.594 232.467,155.261 230.5,155.5C 234.14,152.465 236.807,153.299 238.5,158C 237.77,161.794 237.27,165.627 237,169.5C 236.722,170.416 236.222,171.082 235.5,171.5 Z"/></g>
<g><path style="opacity:1" fill="#c0639b" d="M 230.5,155.5 C 232.467,155.261 234.301,155.594 236,156.5C 236.251,161.501 236.084,166.501 235.5,171.5C 233.5,171.5 231.5,171.5 229.5,171.5C 229.5,170.167 229.5,168.833 229.5,167.5C 230.789,169.248 232.289,169.581 234,168.5C 234.499,164.848 234.665,161.182 234.5,157.5C 233.5,157.5 232.5,157.5 231.5,157.5C 231.737,158.791 231.404,159.791 230.5,160.5C 230.5,158.833 230.5,157.167 230.5,155.5 Z"/></g>
<g><path style="opacity:1" fill="#965179" d="M 277.5,184.5 C 278.461,186.265 278.795,188.265 278.5,190.5C 276.5,190.5 274.5,190.5 272.5,190.5C 272.5,192.167 272.5,193.833 272.5,195.5C 266.642,195.822 260.975,195.489 255.5,194.5C 260.833,194.5 266.167,194.5 271.5,194.5C 271.5,192.833 271.5,191.167 271.5,189.5C 271.833,189.5 272.167,189.5 272.5,189.5C 274.167,189.5 275.833,189.5 277.5,189.5C 277.5,187.833 277.5,186.167 277.5,184.5 Z"/></g>
<g><path style="opacity:1" fill="#d9bec1" d="M 167.5,178.5 C 168.5,178.5 169.5,178.5 170.5,178.5C 171.256,185.491 171.423,192.491 171,199.5C 169.36,201.579 168.194,203.912 167.5,206.5C 164.225,208.214 161.892,207.381 160.5,204C 159.552,203.517 158.552,203.351 157.5,203.5C 155.413,199.783 153.747,195.783 152.5,191.5C 150.955,190.548 149.288,190.215 147.5,190.5C 146.209,190.737 145.209,190.404 144.5,189.5C 146.415,189.784 148.081,189.451 149.5,188.5C 151.894,187.985 154.228,187.319 156.5,186.5C 161.317,185.341 164.984,182.674 167.5,178.5 Z"/></g>
<g><path style="opacity:1" fill="#8e7c7b" d="M 127.5,182.5 C 129.34,184.168 131.34,185.668 133.5,187C 138.767,188.191 144.101,188.691 149.5,188.5C 148.081,189.451 146.415,189.784 144.5,189.5C 143.833,189.5 143.167,189.5 142.5,189.5C 141.127,189.343 139.793,189.51 138.5,190C 140.339,194.51 142.005,199.176 143.5,204C 142.447,208.596 141.447,213.096 140.5,217.5C 135.195,206.258 130.862,194.591 127.5,182.5 Z"/></g>
<g><path style="opacity:1" fill="#cbadb1" d="M 170.5,173.5 C 170.5,174.167 170.5,174.833 170.5,175.5C 171.707,180.414 172.374,185.414 172.5,190.5C 172.571,199.076 171.237,207.409 168.5,215.5C 166.418,215.472 164.584,216.139 163,217.5C 156.612,209.129 151.445,200.129 147.5,190.5C 149.288,190.215 150.955,190.548 152.5,191.5C 153.747,195.783 155.413,199.783 157.5,203.5C 158.552,203.351 159.552,203.517 160.5,204C 161.892,207.381 164.225,208.214 167.5,206.5C 168.194,203.912 169.36,201.579 171,199.5C 171.423,192.491 171.256,185.491 170.5,178.5C 169.5,178.5 168.5,178.5 167.5,178.5C 167.5,178.167 167.5,177.833 167.5,177.5C 167.557,176.391 167.89,175.391 168.5,174.5C 169.167,174.167 169.833,173.833 170.5,173.5 Z"/></g>
<g><path style="opacity:1" fill="#1b1c19" d="M 297.5,197.5 C 299.612,197.602 301.612,198.102 303.5,199C 301.423,199.192 299.423,199.692 297.5,200.5C 298.85,201.95 300.516,202.617 302.5,202.5C 302.5,203.833 302.5,205.167 302.5,206.5C 303.552,206.351 304.552,206.517 305.5,207C 305.974,208.729 306.974,209.895 308.5,210.5C 304.764,211.989 300.764,212.656 296.5,212.5C 272.008,212.828 247.675,211.495 223.5,208.5C 218.46,208.15 213.794,206.816 209.5,204.5C 211.792,204.756 213.959,204.423 216,203.5C 216.483,204.448 216.649,205.448 216.5,206.5C 220.146,207.283 223.812,207.45 227.5,207C 226.5,206.667 225.5,206.333 224.5,206C 226.577,203.55 228.91,201.383 231.5,199.5C 233.568,199.033 235.568,198.366 237.5,197.5C 239.709,198.106 241.876,198.773 244,199.5C 244.399,199.272 244.565,198.938 244.5,198.5C 245.75,198.423 246.583,197.756 247,196.5C 247.5,197.667 248.333,198.5 249.5,199C 255.416,199.807 261.25,199.641 267,198.5C 267.5,199 268,199.5 268.5,200C 270.657,200.078 272.657,200.245 274.5,200.5C 276.774,200.03 278.774,199.03 280.5,197.5C 281.167,198.167 281.833,198.833 282.5,199.5C 285.034,198.212 287.534,198.212 290,199.5C 292.106,197.709 294.606,197.042 297.5,197.5 Z"/></g>
<g><path style="opacity:1" fill="#937576" d="M 161.5,155.5 C 165.308,159.966 169.975,163.299 175.5,165.5C 178.049,165.387 180.382,166.054 182.5,167.5C 184.178,170.861 186.845,172.528 190.5,172.5C 189.717,187.629 196.051,198.295 209.5,204.5C 208.761,204.369 208.094,204.536 207.5,205C 210.352,206.591 213.352,207.924 216.5,209C 215.332,210.406 215.665,211.572 217.5,212.5C 212.197,213.321 206.863,213.321 201.5,212.5C 201.461,215.81 202.794,218.476 205.5,220.5C 205.167,220.833 204.833,221.167 204.5,221.5C 201.169,217.162 196.835,214.495 191.5,213.5C 184.806,205.947 181.306,196.947 181,186.5C 178.865,184.722 176.365,184.055 173.5,184.5C 173.5,186.5 173.5,188.5 173.5,190.5C 173.167,190.5 172.833,190.5 172.5,190.5C 172.374,185.414 171.707,180.414 170.5,175.5C 173.378,177.351 176.378,179.018 179.5,180.5C 180.5,179.833 181.5,179.167 182.5,178.5C 183.167,184.5 183.833,190.5 184.5,196.5C 186.711,195.807 187.045,194.641 185.5,193C 191.844,177.495 187.011,168.661 171,166.5C 170.503,168.81 170.337,171.143 170.5,173.5C 169.833,173.833 169.167,174.167 168.5,174.5C 169.836,167.838 167.503,163.171 161.5,160.5C 161.5,158.833 161.5,157.167 161.5,155.5 Z"/></g>
<g><path style="opacity:1" fill="#39302d" d="M 223.5,208.5 C 247.675,211.495 272.008,212.828 296.5,212.5C 295.081,213.451 293.415,213.784 291.5,213.5C 278.833,213.5 266.167,213.5 253.5,213.5C 244.964,212.598 236.297,211.598 227.5,210.5C 226.167,209.833 224.833,209.167 223.5,208.5 Z"/></g>
<g><path style="opacity:1" fill="#dbc6c8" d="M 308.5,210.5 C 309.833,210.5 311.167,210.5 312.5,210.5C 311.737,211.268 310.737,211.768 309.5,212C 313.356,213.123 317.189,213.289 321,212.5C 322.722,212.611 322.888,213.111 321.5,214C 323.657,215.29 325.99,216.124 328.5,216.5C 331.809,215.55 335.142,214.55 338.5,213.5C 338.5,214.833 338.5,216.167 338.5,217.5C 335.73,221.605 332.063,224.605 327.5,226.5C 327.48,224.857 328.147,223.524 329.5,222.5C 329.291,221.914 328.957,221.414 328.5,221C 321.563,219.827 314.563,219.16 307.5,219C 305.481,217.134 303.148,215.967 300.5,215.5C 296.202,216.297 291.868,216.63 287.5,216.5C 283.181,215.965 278.848,215.465 274.5,215C 280.348,214.827 286.015,214.327 291.5,213.5C 293.415,213.784 295.081,213.451 296.5,212.5C 300.764,212.656 304.764,211.989 308.5,210.5 Z"/></g>
<g><path style="opacity:1" fill="#9b8486" d="M 209.5,204.5 C 213.794,206.816 218.46,208.15 223.5,208.5C 224.833,209.167 226.167,209.833 227.5,210.5C 224.903,210.721 224.903,211.221 227.5,212C 234.649,212.687 241.649,214.02 248.5,216C 249.5,217 250.5,218 251.5,219C 249.275,219.561 247.275,220.561 245.5,222C 247.699,224.328 249.365,226.995 250.5,230C 262.096,234.011 274.096,235.511 286.5,234.5C 286.167,235.167 285.833,235.833 285.5,236.5C 284.041,236.433 282.708,236.766 281.5,237.5C 281.158,236.662 280.492,236.328 279.5,236.5C 269.165,235.695 258.665,235.028 248,234.5C 245.967,234.506 244.134,234.839 242.5,235.5C 241.317,234.496 239.984,233.662 238.5,233C 227.66,232.233 217.327,229.566 207.5,225C 201.148,222.466 195.814,218.632 191.5,213.5C 196.835,214.495 201.169,217.162 204.5,221.5C 204.833,221.167 205.167,220.833 205.5,220.5C 202.794,218.476 201.461,215.81 201.5,212.5C 206.863,213.321 212.197,213.321 217.5,212.5C 215.665,211.572 215.332,210.406 216.5,209C 213.352,207.924 210.352,206.591 207.5,205C 208.094,204.536 208.761,204.369 209.5,204.5 Z"/></g>
<g><path style="opacity:1" fill="#c5abaf" d="M 253.5,213.5 C 266.167,213.5 278.833,213.5 291.5,213.5C 286.015,214.327 280.348,214.827 274.5,215C 278.848,215.465 283.181,215.965 287.5,216.5C 292.225,219.177 297.558,220.677 303.5,221C 305.321,222.743 307.321,224.243 309.5,225.5C 308.383,228.313 306.55,228.98 304,227.5C 298.249,228.31 292.416,228.81 286.5,229C 287.759,229.923 289.092,230.757 290.5,231.5C 289.398,232.176 288.398,232.842 287.5,233.5C 280.492,233.666 273.492,233.5 266.5,233C 263.766,232.282 263.1,230.782 264.5,228.5C 268.749,225.711 273.415,224.045 278.5,223.5C 278.5,222.5 278.5,221.5 278.5,220.5C 273.347,218.352 268.014,216.519 262.5,215C 258.5,214.667 254.5,214.333 250.5,214C 251.448,213.517 252.448,213.351 253.5,213.5 Z"/></g>
<g><path style="opacity:1" fill="#b7979c" d="M 142.5,189.5 C 143.167,189.5 143.833,189.5 144.5,189.5C 145.209,190.404 146.209,190.737 147.5,190.5C 151.445,200.129 156.612,209.129 163,217.5C 164.584,216.139 166.418,215.472 168.5,215.5C 171.237,207.409 172.571,199.076 172.5,190.5C 172.833,190.5 173.167,190.5 173.5,190.5C 174.338,190.842 174.672,191.508 174.5,192.5C 175.361,202.588 173.861,212.255 170,221.5C 168.182,224 165.848,225.666 163,226.5C 161.774,226.355 160.607,226.022 159.5,225.5C 157.254,220.674 154.754,216.008 152,211.5C 150.895,205.114 148.895,199.114 146,193.5C 143.929,192.897 142.762,191.564 142.5,189.5 Z"/></g>
<g><path style="opacity:1" fill="#9fb095" d="M 176.5,204.5 C 177.653,210.653 177.82,216.986 177,223.5C 176.722,224.416 176.222,225.082 175.5,225.5C 176.386,218.543 176.72,211.543 176.5,204.5 Z"/></g>
<g><path style="opacity:1" fill="#b2999e" d="M 227.5,210.5 C 236.297,211.598 244.964,212.598 253.5,213.5C 252.448,213.351 251.448,213.517 250.5,214C 254.5,214.333 258.5,214.667 262.5,215C 268.014,216.519 273.347,218.352 278.5,220.5C 278.5,221.5 278.5,222.5 278.5,223.5C 273.415,224.045 268.749,225.711 264.5,228.5C 263.1,230.782 263.766,232.282 266.5,233C 273.492,233.5 280.492,233.666 287.5,233.5C 289.85,234.11 289.517,234.444 286.5,234.5C 274.096,235.511 262.096,234.011 250.5,230C 249.365,226.995 247.699,224.328 245.5,222C 247.275,220.561 249.275,219.561 251.5,219C 250.5,218 249.5,217 248.5,216C 241.649,214.02 234.649,212.687 227.5,212C 224.903,211.221 224.903,210.721 227.5,210.5 Z"/></g>
<g><path style="opacity:1" fill="#d1babc" d="M 327.5,226.5 C 314.154,232.336 300.154,235.669 285.5,236.5C 285.833,235.833 286.167,235.167 286.5,234.5C 289.517,234.444 289.85,234.11 287.5,233.5C 288.398,232.842 289.398,232.176 290.5,231.5C 289.092,230.757 287.759,229.923 286.5,229C 292.416,228.81 298.249,228.31 304,227.5C 306.55,228.98 308.383,228.313 309.5,225.5C 307.321,224.243 305.321,222.743 303.5,221C 297.558,220.677 292.225,219.177 287.5,216.5C 291.868,216.63 296.202,216.297 300.5,215.5C 303.148,215.967 305.481,217.134 307.5,219C 314.563,219.16 321.563,219.827 328.5,221C 328.957,221.414 329.291,221.914 329.5,222.5C 328.147,223.524 327.48,224.857 327.5,226.5 Z"/></g>
<g><path style="opacity:1" fill="#a0898a" d="M 142.5,189.5 C 142.762,191.564 143.929,192.897 146,193.5C 148.895,199.114 150.895,205.114 152,211.5C 154.754,216.008 157.254,220.674 159.5,225.5C 160.607,226.022 161.774,226.355 163,226.5C 165.848,225.666 168.182,224 170,221.5C 173.861,212.255 175.361,202.588 174.5,192.5C 175.795,196.267 176.461,200.267 176.5,204.5C 176.72,211.543 176.386,218.543 175.5,225.5C 174.416,227.319 173.082,228.985 171.5,230.5C 172.127,231.417 172.461,232.417 172.5,233.5C 171.262,232.588 169.928,232.421 168.5,233C 165.833,234.333 163.167,235.667 160.5,237C 161.056,237.383 161.389,237.883 161.5,238.5C 158.482,238.665 155.482,238.498 152.5,238C 147.592,231.682 143.592,224.848 140.5,217.5C 141.447,213.096 142.447,208.596 143.5,204C 142.005,199.176 140.339,194.51 138.5,190C 139.793,189.51 141.127,189.343 142.5,189.5 Z"/></g>
<g><path style="opacity:1" fill="#0e0b08" d="M 242.5,235.5 C 244.134,234.839 245.967,234.506 248,234.5C 258.665,235.028 269.165,235.695 279.5,236.5C 279.53,237.497 279.03,238.164 278,238.5C 275.203,238.822 272.703,239.822 270.5,241.5C 268.568,240.48 266.568,240.313 264.5,241C 265.167,241.333 265.833,241.667 266.5,242C 258.01,242.518 251.01,243.684 245.5,245.5C 242.086,245.264 238.753,244.598 235.5,243.5C 236.127,242.583 236.461,241.583 236.5,240.5C 238.948,239.527 241.615,239.194 244.5,239.5C 244.843,237.517 244.176,236.183 242.5,235.5 Z"/></g>
<g><path style="opacity:1" fill="#2e302c" d="M 172.5,233.5 C 174.885,235.884 176.885,238.55 178.5,241.5C 176.563,239.909 174.563,238.242 172.5,236.5C 171.5,236.833 170.833,237.5 170.5,238.5C 173.61,243.742 176.944,248.742 180.5,253.5C 181.535,255.128 181.535,256.795 180.5,258.5C 176.149,251.965 171.149,245.798 165.5,240C 164.255,239.209 162.922,238.709 161.5,238.5C 161.389,237.883 161.056,237.383 160.5,237C 163.167,235.667 165.833,234.333 168.5,233C 169.928,232.421 171.262,232.588 172.5,233.5 Z"/></g>
<g><path style="opacity:1" fill="#191614" d="M 279.5,236.5 C 280.492,236.328 281.158,236.662 281.5,237.5C 280.848,238.449 280.514,239.615 280.5,241C 280.307,243.008 280.974,244.508 282.5,245.5C 283.609,246.29 284.942,246.79 286.5,247C 287.337,248.011 287.67,249.178 287.5,250.5C 280.962,248.04 274.295,247.373 267.5,248.5C 263.452,248.605 259.452,248.272 255.5,247.5C 252.167,246.833 248.833,246.167 245.5,245.5C 251.01,243.684 258.01,242.518 266.5,242C 265.833,241.667 265.167,241.333 264.5,241C 266.568,240.313 268.568,240.48 270.5,241.5C 272.703,239.822 275.203,238.822 278,238.5C 279.03,238.164 279.53,237.497 279.5,236.5 Z"/></g>
<g><path style="opacity:1" fill="#161715" d="M 178.5,241.5 C 181.635,244.808 184.635,248.308 187.5,252C 190.498,252.891 193.164,252.391 195.5,250.5C 196.873,250.343 198.207,250.51 199.5,251C 198.944,251.383 198.611,251.883 198.5,252.5C 197.167,253.167 196.167,254.167 195.5,255.5C 191.346,259.792 188.18,264.792 186,270.5C 185.768,269.263 185.268,268.263 184.5,267.5C 181.314,265.453 179.981,262.453 180.5,258.5C 181.535,256.795 181.535,255.128 180.5,253.5C 176.944,248.742 173.61,243.742 170.5,238.5C 170.833,237.5 171.5,236.833 172.5,236.5C 174.563,238.242 176.563,239.909 178.5,241.5 Z"/></g>
<g><path style="opacity:1" fill="#898e82" d="M 234.5,243.5 C 228.242,245.3 221.575,246.133 214.5,246C 215.566,247.159 215.233,247.992 213.5,248.5C 213.44,247.957 213.107,247.624 212.5,247.5C 210.026,248.32 207.693,249.32 205.5,250.5C 202.892,250.4 200.558,251.067 198.5,252.5C 198.611,251.883 198.944,251.383 199.5,251C 198.207,250.51 196.873,250.343 195.5,250.5C 201.638,249.625 207.638,247.791 213.5,245C 220.579,244.797 227.579,244.297 234.5,243.5 Z"/></g>
<g><path style="opacity:1" fill="#c6c2bf" d="M 213.5,248.5 C 211.429,251.512 208.762,252.179 205.5,250.5C 207.693,249.32 210.026,248.32 212.5,247.5C 213.107,247.624 213.44,247.957 213.5,248.5 Z"/></g>
<g><path style="opacity:1" fill="#44413e" d="M 282.5,245.5 C 287.283,244.615 289.616,246.615 289.5,251.5C 284.473,251.497 279.473,251.164 274.5,250.5C 272.167,249.833 269.833,249.167 267.5,248.5C 274.295,247.373 280.962,248.04 287.5,250.5C 287.67,249.178 287.337,248.011 286.5,247C 284.942,246.79 283.609,246.29 282.5,245.5 Z"/></g>
<g><path style="opacity:1" fill="#f5f5f5" d="M 308.5,258.5 C 313.882,261.882 318.215,266.215 321.5,271.5C 321.318,273.591 321.652,275.591 322.5,277.5C 321.91,278.799 320.91,279.632 319.5,280C 321.891,281.309 321.891,282.309 319.5,283C 322.18,286.423 323.013,290.256 322,294.5C 321.759,291.711 321.092,289.044 320,286.5C 319.349,288.235 319.515,289.902 320.5,291.5C 319.102,293.605 317.602,295.605 316,297.5C 315.34,300.047 315.507,302.547 316.5,305C 316.241,306.261 315.574,307.261 314.5,308C 310.237,309.539 307.57,308.206 306.5,304C 308.167,301.845 309.167,299.345 309.5,296.5C 308.105,294.139 306.105,292.472 303.5,291.5C 297.193,290.669 290.859,290.169 284.5,290C 285.624,289.751 286.624,289.251 287.5,288.5C 283.5,285.5 279.5,282.5 275.5,279.5C 275.167,279.833 274.833,280.167 274.5,280.5C 277.499,283.448 277.166,284.448 273.5,283.5C 270.232,279.889 268.399,275.555 268,270.5C 265.373,269.686 263.04,268.353 261,266.5C 260.316,265.216 260.483,264.049 261.5,263C 259.31,261.912 257.977,260.746 257.5,259.5C 258.502,257.989 259.169,256.322 259.5,254.5C 276.036,252.206 292.369,253.539 308.5,258.5 Z"/></g>
<g><path style="opacity:1" fill="#bebab9" d="M 253.5,249.5 C 260.51,249.668 267.51,250.001 274.5,250.5C 279.473,251.164 284.473,251.497 289.5,251.5C 289.5,251.833 289.5,252.167 289.5,252.5C 273.838,251.747 258.171,251.581 242.5,252C 237.857,254.14 234.857,257.64 233.5,262.5C 229.277,263.931 227.277,266.931 227.5,271.5C 225.408,271.439 223.908,270.439 223,268.5C 222.852,265.411 222.019,262.578 220.5,260C 221.101,258.395 222.101,257.062 223.5,256C 222.552,255.517 221.552,255.351 220.5,255.5C 220.804,254.85 221.137,254.183 221.5,253.5C 231.868,249.97 242.534,248.637 253.5,249.5 Z"/></g>
<g><path style="opacity:1" fill="#dddad6" d="M 289.5,252.5 C 295.481,253.995 301.481,255.495 307.5,257C 308.056,257.383 308.389,257.883 308.5,258.5C 292.369,253.539 276.036,252.206 259.5,254.5C 259.169,256.322 258.502,257.989 257.5,259.5C 254.527,262.048 251.527,262.048 248.5,259.5C 246.512,260.289 246.179,261.455 247.5,263C 244.518,263.498 241.518,263.665 238.5,263.5C 236.784,263.371 235.117,263.038 233.5,262.5C 234.857,257.64 237.857,254.14 242.5,252C 258.171,251.581 273.838,251.747 289.5,252.5 Z"/></g>
<g><path style="opacity:1" fill="#9c9b9a" d="M 253.5,249.5 C 242.534,248.637 231.868,249.97 221.5,253.5C 221.137,254.183 220.804,254.85 220.5,255.5C 216.756,255.871 213.756,257.538 211.5,260.5C 215.091,264.052 216.424,268.218 215.5,273C 219.39,283.119 221.223,293.619 221,304.5C 221.067,307.047 221.901,309.214 223.5,311C 223.47,315.044 223.137,319.044 222.5,323C 223.756,324.845 224.756,326.845 225.5,329C 225.684,335.645 225.684,342.312 225.5,349C 225.482,351.442 226.149,353.608 227.5,355.5C 226.167,355.5 224.833,355.5 223.5,355.5C 223.167,355.5 222.833,355.5 222.5,355.5C 220.909,354.781 219.409,353.781 218,352.5C 217.004,347.771 217.504,343.271 219.5,339C 216.235,335.116 215.235,330.782 216.5,326C 214.407,315.925 213.741,305.759 214.5,295.5C 212.124,283.919 210.624,272.253 210,260.5C 213.028,255.142 217.528,251.642 223.5,250C 233.623,248.292 243.623,248.125 253.5,249.5 Z"/></g>
<g><path style="opacity:1" fill="#656464" d="M 195.5,255.5 C 196.292,257.257 197.625,258.591 199.5,259.5C 196.697,263.007 196.031,266.841 197.5,271C 196.445,276.636 195.445,282.302 194.5,288C 195.307,293.109 195.14,298.276 194,303.5C 191.41,307.057 190.91,310.89 192.5,315C 191.319,319.936 189.319,324.436 186.5,328.5C 185.288,327.77 184.288,326.77 183.5,325.5C 182.818,326.243 182.151,326.909 181.5,327.5C 182.495,312.183 183.495,296.849 184.5,281.5C 185.19,276.893 185.19,272.226 184.5,267.5C 185.268,268.263 185.768,269.263 186,270.5C 188.18,264.792 191.346,259.792 195.5,255.5 Z"/></g>
<g><path style="opacity:1" fill="#73706f" d="M 236.5,240.5 C 236.461,241.583 236.127,242.583 235.5,243.5C 238.753,244.598 242.086,245.264 245.5,245.5C 248.833,246.167 252.167,246.833 255.5,247.5C 241.259,246.574 227.259,247.741 213.5,251C 210.677,254.331 208.01,257.831 205.5,261.5C 205.225,259.242 204.225,258.908 202.5,260.5C 201.719,261.729 201.219,263.062 201,264.5C 200.782,271.703 200.282,278.87 199.5,286C 200.995,293.747 200.662,301.414 198.5,309C 200.508,313.596 199.842,317.596 196.5,321C 197.833,322 197.833,323 196.5,324C 197.167,324.667 197.833,325.333 198.5,326C 197.167,329 197.167,332 198.5,335C 197.29,336.039 196.29,337.206 195.5,338.5C 193.574,337.758 191.741,336.758 190,335.5C 188.968,333.006 187.802,330.672 186.5,328.5C 189.319,324.436 191.319,319.936 192.5,315C 190.91,310.89 191.41,307.057 194,303.5C 195.14,298.276 195.307,293.109 194.5,288C 195.445,282.302 196.445,276.636 197.5,271C 196.031,266.841 196.697,263.007 199.5,259.5C 197.625,258.591 196.292,257.257 195.5,255.5C 196.167,254.167 197.167,253.167 198.5,252.5C 200.558,251.067 202.892,250.4 205.5,250.5C 208.762,252.179 211.429,251.512 213.5,248.5C 215.233,247.992 215.566,247.159 214.5,246C 221.575,246.133 228.242,245.3 234.5,243.5C 234.427,241.973 235.094,240.973 236.5,240.5 Z"/></g>
<g><path style="opacity:1" fill="#80807f" d="M 205.5,261.5 C 206.743,270.64 207.743,279.806 208.5,289C 207.581,293.227 207.914,297.394 209.5,301.5C 208.224,314.533 208.558,327.366 210.5,340C 209.886,342.854 209.219,345.687 208.5,348.5C 209.193,349.518 209.859,350.518 210.5,351.5C 209.833,351.5 209.167,351.5 208.5,351.5C 204.446,346.956 200.113,342.623 195.5,338.5C 196.29,337.206 197.29,336.039 198.5,335C 197.167,332 197.167,329 198.5,326C 197.833,325.333 197.167,324.667 196.5,324C 197.833,323 197.833,322 196.5,321C 199.842,317.596 200.508,313.596 198.5,309C 200.662,301.414 200.995,293.747 199.5,286C 200.282,278.87 200.782,271.703 201,264.5C 201.219,263.062 201.719,261.729 202.5,260.5C 204.225,258.908 205.225,259.242 205.5,261.5 Z"/></g>
<g><path style="opacity:1" fill="#b7eaf1" d="M 233.5,262.5 C 235.117,263.038 236.784,263.371 238.5,263.5C 245.628,266.137 252.962,268.804 260.5,271.5C 262.038,282.005 261.205,292.339 258,302.5C 255.281,303.444 252.448,303.777 249.5,303.5C 246.72,302.922 244.053,302.255 241.5,301.5C 246.297,301.879 250.964,301.379 255.5,300C 256,299.5 256.5,299 257,298.5C 257.32,293.977 257.82,289.477 258.5,285C 256.494,282.393 254.494,282.893 252.5,286.5C 252.977,287.478 253.643,288.311 254.5,289C 253.175,288.852 252.008,289.018 251,289.5C 248.46,287.98 245.627,286.98 242.5,286.5C 241.689,285.784 241.022,284.95 240.5,284C 241.918,280.999 242.751,277.832 243,274.5C 245.867,274.065 248.367,272.899 250.5,271C 244.582,267.846 238.249,266.512 231.5,267C 230.177,267.816 229.511,268.983 229.5,270.5C 228.833,270.5 228.5,270.833 228.5,271.5C 228.167,271.5 227.833,271.5 227.5,271.5C 227.277,266.931 229.277,263.931 233.5,262.5 Z"/></g>
<g><path style="opacity:1" fill="#91e4f5" d="M 237.5,299.5 C 227.181,299.212 223.348,293.879 226,283.5C 226.557,279.406 227.39,275.406 228.5,271.5C 228.5,270.833 228.833,270.5 229.5,270.5C 229.351,271.552 229.517,272.552 230,273.5C 231.009,271.975 231.509,270.308 231.5,268.5C 233.467,268.261 235.301,268.594 237,269.5C 237.21,272.234 238.044,274.734 239.5,277C 236.536,277.84 236.203,278.84 238.5,280C 237.903,281.062 237.57,282.228 237.5,283.5C 239.14,287.266 239.807,291.266 239.5,295.5C 242.482,295.104 245.149,295.771 247.5,297.5C 251.279,294.783 251.945,295.283 249.5,299C 245.514,299.499 241.514,299.666 237.5,299.5 Z"/></g>
<g><path style="opacity:1" fill="#edeeed" d="M 321.5,271.5 C 323.071,273.635 324.404,275.968 325.5,278.5C 325.443,279.609 325.11,280.609 324.5,281.5C 323.527,283.948 323.194,286.615 323.5,289.5C 323.5,293.167 323.5,296.833 323.5,300.5C 323.557,304.029 324.557,307.029 326.5,309.5C 324.888,314.837 323.554,320.17 322.5,325.5C 320.699,327.138 319.033,328.971 317.5,331C 311.364,335.618 305.364,340.118 299.5,344.5C 296.101,346.433 292.435,347.266 288.5,347C 289.305,344.866 288.638,343.033 286.5,341.5C 284.626,336.703 284.292,331.869 285.5,327C 283.558,325.028 283.224,322.861 284.5,320.5C 283.668,314.853 282.834,309.187 282,303.5C 280.875,300.11 279.375,296.943 277.5,294C 278.833,293.667 280.167,293.333 281.5,293C 279.567,292.749 277.734,292.249 276,291.5C 275.059,288.846 274.226,286.179 273.5,283.5C 277.166,284.448 277.499,283.448 274.5,280.5C 274.833,280.167 275.167,279.833 275.5,279.5C 279.5,282.5 283.5,285.5 287.5,288.5C 286.624,289.251 285.624,289.751 284.5,290C 290.859,290.169 297.193,290.669 303.5,291.5C 306.105,292.472 308.105,294.139 309.5,296.5C 309.167,299.345 308.167,301.845 306.5,304C 307.57,308.206 310.237,309.539 314.5,308C 315.574,307.261 316.241,306.261 316.5,305C 315.507,302.547 315.34,300.047 316,297.5C 317.602,295.605 319.102,293.605 320.5,291.5C 319.515,289.902 319.349,288.235 320,286.5C 321.092,289.044 321.759,291.711 322,294.5C 323.013,290.256 322.18,286.423 319.5,283C 321.891,282.309 321.891,281.309 319.5,280C 320.91,279.632 321.91,278.799 322.5,277.5C 321.652,275.591 321.318,273.591 321.5,271.5 Z"/></g>
<g><path style="opacity:1" fill="#93a494" d="M 325.5,278.5 C 326.872,279.512 328.205,280.512 329.5,281.5C 327.833,281.5 326.167,281.5 324.5,281.5C 325.11,280.609 325.443,279.609 325.5,278.5 Z"/></g>
<g><path style="opacity:1" fill="#e3e5e4" d="M 257.5,259.5 C 257.977,260.746 259.31,261.912 261.5,263C 260.483,264.049 260.316,265.216 261,266.5C 263.04,268.353 265.373,269.686 268,270.5C 268.399,275.555 270.232,279.889 273.5,283.5C 274.226,286.179 275.059,288.846 276,291.5C 277.734,292.249 279.567,292.749 281.5,293C 280.167,293.333 278.833,293.667 277.5,294C 279.375,296.943 280.875,300.11 282,303.5C 282.834,309.187 283.668,314.853 284.5,320.5C 283.224,322.861 283.558,325.028 285.5,327C 284.292,331.869 284.626,336.703 286.5,341.5C 288.638,343.033 289.305,344.866 288.5,347C 292.435,347.266 296.101,346.433 299.5,344.5C 299.047,345.458 298.381,346.292 297.5,347C 294.379,348.608 291.046,349.441 287.5,349.5C 287.631,348.624 287.298,347.957 286.5,347.5C 284.365,350.078 282.365,349.912 280.5,347C 280.957,346.586 281.291,346.086 281.5,345.5C 280.335,344.416 279.002,343.583 277.5,343C 280.451,338.653 279.951,334.82 276,331.5C 275.405,330.101 275.572,328.768 276.5,327.5C 274.622,325.134 272.955,322.634 271.5,320C 272.758,315.218 272.758,310.384 271.5,305.5C 269.642,301.042 267.475,300.708 265,304.5C 264.13,303.892 263.63,303.059 263.5,302C 264.482,301.619 265.148,300.786 265.5,299.5C 264.009,297.459 264.342,295.959 266.5,295C 265.663,293.989 265.33,292.822 265.5,291.5C 264.448,291.649 263.448,291.483 262.5,291C 263.635,286.252 263.802,281.419 263,276.5C 262.626,274.509 261.793,272.842 260.5,271.5C 252.962,268.804 245.628,266.137 238.5,263.5C 241.518,263.665 244.518,263.498 247.5,263C 246.179,261.455 246.512,260.289 248.5,259.5C 251.527,262.048 254.527,262.048 257.5,259.5 Z"/></g>
<g><path style="opacity:1" fill="#8f8e8d" d="M 255.5,247.5 C 259.452,248.272 263.452,248.605 267.5,248.5C 269.833,249.167 272.167,249.833 274.5,250.5C 267.51,250.001 260.51,249.668 253.5,249.5C 243.623,248.125 233.623,248.292 223.5,250C 217.528,251.642 213.028,255.142 210,260.5C 210.624,272.253 212.124,283.919 214.5,295.5C 213.741,305.759 214.407,315.925 216.5,326C 215.235,330.782 216.235,335.116 219.5,339C 217.504,343.271 217.004,347.771 218,352.5C 219.409,353.781 220.909,354.781 222.5,355.5C 218.429,354.48 214.429,353.146 210.5,351.5C 209.859,350.518 209.193,349.518 208.5,348.5C 209.219,345.687 209.886,342.854 210.5,340C 208.558,327.366 208.224,314.533 209.5,301.5C 207.914,297.394 207.581,293.227 208.5,289C 207.743,279.806 206.743,270.64 205.5,261.5C 208.01,257.831 210.677,254.331 213.5,251C 227.259,247.741 241.259,246.574 255.5,247.5 Z"/></g>
<g><path style="opacity:1" fill="#a3e9f4" d="M 241.5,301.5 C 240.167,300.833 238.833,300.167 237.5,299.5C 241.514,299.666 245.514,299.499 249.5,299C 251.945,295.283 251.279,294.783 247.5,297.5C 245.149,295.771 242.482,295.104 239.5,295.5C 239.807,291.266 239.14,287.266 237.5,283.5C 237.57,282.228 237.903,281.062 238.5,280C 236.203,278.84 236.536,277.84 239.5,277C 238.044,274.734 237.21,272.234 237,269.5C 235.301,268.594 233.467,268.261 231.5,268.5C 231.509,270.308 231.009,271.975 230,273.5C 229.517,272.552 229.351,271.552 229.5,270.5C 229.511,268.983 230.177,267.816 231.5,267C 238.249,266.512 244.582,267.846 250.5,271C 248.367,272.899 245.867,274.065 243,274.5C 242.751,277.832 241.918,280.999 240.5,284C 241.022,284.95 241.689,285.784 242.5,286.5C 245.627,286.98 248.46,287.98 251,289.5C 252.008,289.018 253.175,288.852 254.5,289C 253.643,288.311 252.977,287.478 252.5,286.5C 254.494,282.893 256.494,282.393 258.5,285C 257.82,289.477 257.32,293.977 257,298.5C 256.5,299 256,299.5 255.5,300C 250.964,301.379 246.297,301.879 241.5,301.5 Z"/></g>
<g><path style="opacity:1" fill="#6a736a" d="M 329.5,282.5 C 330.249,283.531 330.915,284.698 331.5,286C 339.47,288.143 342.804,293.309 341.5,301.5C 339.906,298.939 338.906,295.939 338.5,292.5C 336.498,289.408 333.665,287.408 330,286.5C 329.51,285.207 329.343,283.873 329.5,282.5 Z"/></g>
<g><path style="opacity:1" fill="#9fc4cd" d="M 227.5,271.5 C 227.833,271.5 228.167,271.5 228.5,271.5C 227.39,275.406 226.557,279.406 226,283.5C 223.348,293.879 227.181,299.212 237.5,299.5C 238.833,300.167 240.167,300.833 241.5,301.5C 240.508,301.328 239.842,301.662 239.5,302.5C 236.904,301.735 234.237,301.401 231.5,301.5C 229.25,299.756 227.083,297.756 225,295.5C 223.991,287.286 224.824,279.286 227.5,271.5 Z"/></g>
<g><path style="opacity:1" fill="#404140" d="M 324.5,281.5 C 326.167,281.5 327.833,281.5 329.5,281.5C 329.5,281.833 329.5,282.167 329.5,282.5C 329.343,283.873 329.51,285.207 330,286.5C 333.665,287.408 336.498,289.408 338.5,292.5C 338.906,295.939 339.906,298.939 341.5,301.5C 342.6,302.605 343.267,303.938 343.5,305.5C 339.978,301.878 336.644,302.212 333.5,306.5C 332.833,306.5 332.167,306.5 331.5,306.5C 331.827,304.512 332.16,302.512 332.5,300.5C 331.44,296.819 330.273,293.153 329,289.5C 328.781,290.938 328.281,292.271 327.5,293.5C 326.833,291.5 326.167,289.5 325.5,287.5C 324.818,288.243 324.151,288.909 323.5,289.5C 323.194,286.615 323.527,283.948 324.5,281.5 Z"/></g>
<g><path style="opacity:1" fill="#191a19" d="M 331.5,306.5 C 330.833,306.5 330.5,306.833 330.5,307.5C 329.442,306.4 328.608,305.066 328,303.5C 326.249,302.778 324.749,301.778 323.5,300.5C 323.5,296.833 323.5,293.167 323.5,289.5C 324.151,288.909 324.818,288.243 325.5,287.5C 326.167,289.5 326.833,291.5 327.5,293.5C 328.281,292.271 328.781,290.938 329,289.5C 330.273,293.153 331.44,296.819 332.5,300.5C 332.16,302.512 331.827,304.512 331.5,306.5 Z"/></g>
<g><path style="opacity:1" fill="#dbdcdc" d="M 260.5,271.5 C 261.793,272.842 262.626,274.509 263,276.5C 263.802,281.419 263.635,286.252 262.5,291C 263.448,291.483 264.448,291.649 265.5,291.5C 265.33,292.822 265.663,293.989 266.5,295C 264.342,295.959 264.009,297.459 265.5,299.5C 265.148,300.786 264.482,301.619 263.5,302C 263.63,303.059 264.13,303.892 265,304.5C 267.475,300.708 269.642,301.042 271.5,305.5C 272.758,310.384 272.758,315.218 271.5,320C 272.955,322.634 274.622,325.134 276.5,327.5C 275.572,328.768 275.405,330.101 276,331.5C 279.951,334.82 280.451,338.653 277.5,343C 279.002,343.583 280.335,344.416 281.5,345.5C 281.291,346.086 280.957,346.586 280.5,347C 282.365,349.912 284.365,350.078 286.5,347.5C 287.298,347.957 287.631,348.624 287.5,349.5C 287.167,350.167 286.833,350.833 286.5,351.5C 280.495,353.52 274.328,354.854 268,355.5C 263.336,354.683 262.503,352.517 265.5,349C 265,348.5 264.5,348 264,347.5C 263.921,343.642 263.254,339.976 262,336.5C 261.216,333.24 261.383,330.073 262.5,327C 260.667,324.521 259.667,321.687 259.5,318.5C 260.794,316.407 261.461,314.407 261.5,312.5C 260.5,311.167 259.5,309.833 258.5,308.5C 254.99,307.582 251.99,305.916 249.5,303.5C 252.448,303.777 255.281,303.444 258,302.5C 261.205,292.339 262.038,282.005 260.5,271.5 Z"/></g>
<g><path style="opacity:1" fill="#343634" d="M 323.5,300.5 C 324.749,301.778 326.249,302.778 328,303.5C 328.608,305.066 329.442,306.4 330.5,307.5C 329.817,309.176 328.483,309.843 326.5,309.5C 324.557,307.029 323.557,304.029 323.5,300.5 Z"/></g>
<g><path style="opacity:1" fill="#aaacab" d="M 220.5,255.5 C 221.552,255.351 222.552,255.517 223.5,256C 222.101,257.062 221.101,258.395 220.5,260C 222.019,262.578 222.852,265.411 223,268.5C 223.908,270.439 225.408,271.439 227.5,271.5C 224.824,279.286 223.991,287.286 225,295.5C 227.083,297.756 229.25,299.756 231.5,301.5C 232.058,302.79 233.058,303.623 234.5,304C 233.919,304.893 233.585,305.893 233.5,307C 235.507,318.009 236.174,329.009 235.5,340C 236.954,342.721 238.621,344.554 240.5,345.5C 239.975,346.192 239.308,346.692 238.5,347C 238.659,350.921 238.659,354.754 238.5,358.5C 236.833,358.5 235.167,358.5 233.5,358.5C 231.181,358.008 229.181,357.008 227.5,355.5C 226.149,353.608 225.482,351.442 225.5,349C 225.684,342.312 225.684,335.645 225.5,329C 224.756,326.845 223.756,324.845 222.5,323C 223.137,319.044 223.47,315.044 223.5,311C 221.901,309.214 221.067,307.047 221,304.5C 221.223,293.619 219.39,283.119 215.5,273C 216.424,268.218 215.091,264.052 211.5,260.5C 213.756,257.538 216.756,255.871 220.5,255.5 Z"/></g>
<g><path style="opacity:1" fill="#bcbcbc" d="M 231.5,301.5 C 234.237,301.401 236.904,301.735 239.5,302.5C 242.171,307.03 242.838,311.863 241.5,317C 242.882,324.877 244.548,332.877 246.5,341C 245.632,342.865 245.966,344.698 247.5,346.5C 247.069,347.293 246.735,348.127 246.5,349C 247.647,351.444 248.981,353.777 250.5,356C 249.377,357.044 248.044,357.71 246.5,358C 251.155,358.499 255.821,358.666 260.5,358.5C 259.081,359.451 257.415,359.784 255.5,359.5C 249.797,359.625 244.13,359.292 238.5,358.5C 238.659,354.754 238.659,350.921 238.5,347C 239.308,346.692 239.975,346.192 240.5,345.5C 238.621,344.554 236.954,342.721 235.5,340C 236.174,329.009 235.507,318.009 233.5,307C 233.585,305.893 233.919,304.893 234.5,304C 233.058,303.623 232.058,302.79 231.5,301.5 Z"/></g>
<g><path style="opacity:1" fill="#cacbcb" d="M 241.5,301.5 C 244.053,302.255 246.72,302.922 249.5,303.5C 251.99,305.916 254.99,307.582 258.5,308.5C 259.5,309.833 260.5,311.167 261.5,312.5C 261.461,314.407 260.794,316.407 259.5,318.5C 259.667,321.687 260.667,324.521 262.5,327C 261.383,330.073 261.216,333.24 262,336.5C 263.254,339.976 263.921,343.642 264,347.5C 264.5,348 265,348.5 265.5,349C 262.503,352.517 263.336,354.683 268,355.5C 274.328,354.854 280.495,353.52 286.5,351.5C 283.782,352.104 281.449,353.437 279.5,355.5C 272.889,355.547 266.556,356.547 260.5,358.5C 255.821,358.666 251.155,358.499 246.5,358C 248.044,357.71 249.377,357.044 250.5,356C 248.981,353.777 247.647,351.444 246.5,349C 246.735,348.127 247.069,347.293 247.5,346.5C 245.966,344.698 245.632,342.865 246.5,341C 244.548,332.877 242.882,324.877 241.5,317C 242.838,311.863 242.171,307.03 239.5,302.5C 239.842,301.662 240.508,301.328 241.5,301.5 Z"/></g>
<g><path style="opacity:1" fill="#252422" d="M 343.5,305.5 C 345.394,308.939 347.56,312.272 350,315.5C 351.226,313.452 352.726,313.119 354.5,314.5C 355.5,316.5 356.5,318.5 357.5,320.5C 357.721,323.279 357.388,325.946 356.5,328.5C 356.167,328.5 355.833,328.5 355.5,328.5C 354.493,325.678 353.66,322.678 353,319.5C 352.366,322.633 350.533,324.633 347.5,325.5C 344.712,320.974 341.379,316.974 337.5,313.5C 335.929,311.365 334.596,309.032 333.5,306.5C 336.644,302.212 339.978,301.878 343.5,305.5 Z"/></g>
<g><path style="opacity:1" fill="#828c81" d="M 184.5,281.5 C 183.495,296.849 182.495,312.183 181.5,327.5C 181.5,330.167 181.5,332.833 181.5,335.5C 179.564,317.339 180.564,299.339 184.5,281.5 Z"/></g>
<g><path style="opacity:1" fill="#383633" d="M 337.5,313.5 C 341.379,316.974 344.712,320.974 347.5,325.5C 350.533,324.633 352.366,322.633 353,319.5C 353.66,322.678 354.493,325.678 355.5,328.5C 354.5,329.833 353.5,331.167 352.5,332.5C 348.931,334.119 345.264,335.452 341.5,336.5C 343.768,328.127 342.435,320.461 337.5,313.5 Z"/></g>
<g><path style="opacity:1" fill="#f6eeed" d="M 407.5,374.5 C 406.833,374.5 406.167,374.5 405.5,374.5C 401.929,375.642 398.262,376.309 394.5,376.5C 387.902,369.378 381.735,361.712 376,353.5C 371.624,344.153 366.124,335.653 359.5,328C 358.984,325.331 358.317,322.831 357.5,320.5C 356.5,318.5 355.5,316.5 354.5,314.5C 355.251,313.427 356.251,313.26 357.5,314C 376.497,328.993 392.664,346.493 406,366.5C 408.116,368.996 408.616,371.663 407.5,374.5 Z"/></g>
<g><path style="opacity:1" fill="#c5a5a6" d="M 352.5,332.5 C 359.689,348.113 368.856,362.113 380,374.5C 380.483,375.448 380.649,376.448 380.5,377.5C 383.518,377.704 386.518,378.037 389.5,378.5C 388.432,379.434 387.099,379.768 385.5,379.5C 383.139,379.326 380.806,378.993 378.5,378.5C 378.229,376.688 377.562,375.022 376.5,373.5C 373.837,371.008 371.004,368.674 368,366.5C 366.975,362.945 364.975,359.945 362,357.5C 358.924,352.904 356.591,347.904 355,342.5C 353.605,340.86 352.105,339.36 350.5,338C 351.647,336.719 351.313,336.386 349.5,337C 348.874,337.75 348.374,338.584 348,339.5C 346.887,338.289 345.72,338.289 344.5,339.5C 342.814,343.221 343.481,346.387 346.5,349C 345.62,350.356 345.286,351.856 345.5,353.5C 344.883,353.389 344.383,353.056 344,352.5C 342.202,347.311 341.369,341.978 341.5,336.5C 345.264,335.452 348.931,334.119 352.5,332.5 Z"/></g>
<g><path style="opacity:1" fill="#ead7d9" d="M 322.5,325.5 C 319.666,346.042 311.999,364.375 299.5,380.5C 299.672,379.508 299.338,378.842 298.5,378.5C 299.234,377.292 299.567,375.959 299.5,374.5C 297.801,374.34 296.134,374.506 294.5,375C 293.932,376.604 292.932,377.27 291.5,377C 291.893,371.779 290.06,367.279 286,363.5C 286.655,360.129 285.655,357.129 283,354.5C 281.989,355.337 280.822,355.67 279.5,355.5C 281.449,353.437 283.782,352.104 286.5,351.5C 286.833,350.833 287.167,350.167 287.5,349.5C 291.046,349.441 294.379,348.608 297.5,347C 298.381,346.292 299.047,345.458 299.5,344.5C 305.364,340.118 311.364,335.618 317.5,331C 319.033,328.971 320.699,327.138 322.5,325.5 Z"/></g>
<g><path style="opacity:1" fill="#7a6869" d="M 186.5,328.5 C 187.802,330.672 188.968,333.006 190,335.5C 191.741,336.758 193.574,337.758 195.5,338.5C 200.113,342.623 204.446,346.956 208.5,351.5C 207.417,351.461 206.417,351.127 205.5,350.5C 205.388,355.364 203.721,359.53 200.5,363C 197.456,363.359 197.122,364.026 199.5,365C 198.263,365.232 197.263,365.732 196.5,366.5C 194.213,366.276 192.047,365.609 190,364.5C 189.235,364.57 188.735,364.903 188.5,365.5C 184.417,356.116 182.083,346.116 181.5,335.5C 181.5,332.833 181.5,330.167 181.5,327.5C 182.151,326.909 182.818,326.243 183.5,325.5C 184.288,326.77 185.288,327.77 186.5,328.5 Z"/></g>
<g><path style="opacity:1" fill="#e0c7cb" d="M 298.5,378.5 C 291.709,379.82 284.876,379.82 278,378.5C 276.413,377.33 274.747,376.33 273,375.5C 272.532,369.648 270.699,364.315 267.5,359.5C 265.257,358.526 262.924,358.192 260.5,358.5C 266.556,356.547 272.889,355.547 279.5,355.5C 280.822,355.67 281.989,355.337 283,354.5C 285.655,357.129 286.655,360.129 286,363.5C 290.06,367.279 291.893,371.779 291.5,377C 292.932,377.27 293.932,376.604 294.5,375C 296.134,374.506 297.801,374.34 299.5,374.5C 299.567,375.959 299.234,377.292 298.5,378.5 Z"/></g>
<g><path style="opacity:1" fill="#967b7f" d="M 208.5,351.5 C 209.167,351.5 209.833,351.5 210.5,351.5C 214.429,353.146 218.429,354.48 222.5,355.5C 222.833,355.5 223.167,355.5 223.5,355.5C 224.209,356.404 225.209,356.737 226.5,356.5C 226.002,359.487 225.502,362.487 225,365.5C 224.551,362.423 224.051,359.756 223.5,357.5C 222.692,359.423 222.192,361.423 222,363.5C 220.719,363.381 219.552,363.881 218.5,365C 220.129,366.056 221.462,367.556 222.5,369.5C 223.451,368.674 224.451,368.508 225.5,369C 224.366,370.016 224.699,370.683 226.5,371C 225.263,371.232 224.263,371.732 223.5,372.5C 214.272,370.99 205.272,368.99 196.5,366.5C 197.263,365.732 198.263,365.232 199.5,365C 197.122,364.026 197.456,363.359 200.5,363C 203.721,359.53 205.388,355.364 205.5,350.5C 206.417,351.127 207.417,351.461 208.5,351.5 Z"/></g>
<g><path style="opacity:1" fill="#b89394" d="M 378.5,378.5 C 376.703,377.27 374.703,376.604 372.5,376.5C 372.122,372.092 369.955,368.759 366,366.5C 364,367.833 362,367.833 360,366.5C 359.949,369.277 359.782,371.943 359.5,374.5C 358.676,371.422 356.676,369.755 353.5,369.5C 349.149,365.179 346.482,359.846 345.5,353.5C 345.286,351.856 345.62,350.356 346.5,349C 343.481,346.387 342.814,343.221 344.5,339.5C 345.72,338.289 346.887,338.289 348,339.5C 348.374,338.584 348.874,337.75 349.5,337C 351.313,336.386 351.647,336.719 350.5,338C 352.105,339.36 353.605,340.86 355,342.5C 356.591,347.904 358.924,352.904 362,357.5C 364.975,359.945 366.975,362.945 368,366.5C 371.004,368.674 373.837,371.008 376.5,373.5C 377.562,375.022 378.229,376.688 378.5,378.5 Z"/></g>
<g><path style="opacity:1" fill="#e3ced0" d="M 357.5,320.5 C 358.317,322.831 358.984,325.331 359.5,328C 366.124,335.653 371.624,344.153 376,353.5C 381.735,361.712 387.902,369.378 394.5,376.5C 393.791,377.404 392.791,377.737 391.5,377.5C 387.805,375.067 384.972,371.733 383,367.5C 379.781,364.736 376.781,361.736 374,358.5C 373.654,356.782 373.154,355.115 372.5,353.5C 369.25,349.975 366.25,346.308 363.5,342.5C 362.051,339.268 360.884,335.935 360,332.5C 358.612,331.264 357.446,329.931 356.5,328.5C 357.388,325.946 357.721,323.279 357.5,320.5 Z"/></g>
<g><path style="opacity:1" fill="#d7bbbe" d="M 355.5,328.5 C 355.833,328.5 356.167,328.5 356.5,328.5C 357.446,329.931 358.612,331.264 360,332.5C 360.884,335.935 362.051,339.268 363.5,342.5C 366.25,346.308 369.25,349.975 372.5,353.5C 373.154,355.115 373.654,356.782 374,358.5C 376.781,361.736 379.781,364.736 383,367.5C 384.972,371.733 387.805,375.067 391.5,377.5C 391.5,377.833 391.5,378.167 391.5,378.5C 390.833,378.5 390.167,378.5 389.5,378.5C 386.518,378.037 383.518,377.704 380.5,377.5C 380.649,376.448 380.483,375.448 380,374.5C 368.856,362.113 359.689,348.113 352.5,332.5C 353.5,331.167 354.5,329.833 355.5,328.5 Z"/></g>
<g><path style="opacity:1" fill="#cfb4b8" d="M 260.5,358.5 C 262.924,358.192 265.257,358.526 267.5,359.5C 270.699,364.315 272.532,369.648 273,375.5C 274.747,376.33 276.413,377.33 278,378.5C 284.876,379.82 291.709,379.82 298.5,378.5C 299.338,378.842 299.672,379.508 299.5,380.5C 289.985,380.827 280.652,380.494 271.5,379.5C 268.997,378.629 266.33,377.963 263.5,377.5C 258.968,375.974 255.634,372.974 253.5,368.5C 256.167,366.833 256.167,365.167 253.5,363.5C 254.853,362.476 255.52,361.143 255.5,359.5C 257.415,359.784 259.081,359.451 260.5,358.5 Z"/></g>
<g><path style="opacity:1" fill="#674e51" d="M 188.5,365.5 C 188.735,364.903 189.235,364.57 190,364.5C 192.047,365.609 194.213,366.276 196.5,366.5C 205.272,368.99 214.272,370.99 223.5,372.5C 224.167,372.5 224.833,372.5 225.5,372.5C 215.567,372.634 205.567,371.468 195.5,369C 193.047,368.041 190.714,366.874 188.5,365.5 Z"/></g>
<g><path style="opacity:1" fill="#ab8d91" d="M 223.5,355.5 C 224.833,355.5 226.167,355.5 227.5,355.5C 229.181,357.008 231.181,358.008 233.5,358.5C 234.987,359.804 236.654,360.97 238.5,362C 235.646,364.078 235.312,366.245 237.5,368.5C 236.391,370.214 237.058,370.881 239.5,370.5C 239.5,371.833 239.5,373.167 239.5,374.5C 234.781,374.112 230.114,373.445 225.5,372.5C 224.833,372.5 224.167,372.5 223.5,372.5C 224.263,371.732 225.263,371.232 226.5,371C 224.699,370.683 224.366,370.016 225.5,369C 224.451,368.508 223.451,368.674 222.5,369.5C 221.462,367.556 220.129,366.056 218.5,365C 219.552,363.881 220.719,363.381 222,363.5C 222.192,361.423 222.692,359.423 223.5,357.5C 224.051,359.756 224.551,362.423 225,365.5C 225.502,362.487 226.002,359.487 226.5,356.5C 225.209,356.737 224.209,356.404 223.5,355.5 Z"/></g>
<g><path style="opacity:1" fill="#937c7e" d="M 188.5,365.5 C 190.714,366.874 193.047,368.041 195.5,369C 205.567,371.468 215.567,372.634 225.5,372.5C 230.114,373.445 234.781,374.112 239.5,374.5C 239.5,374.833 239.5,375.167 239.5,375.5C 234.162,374.998 228.828,374.831 223.5,375C 224.328,375.915 225.328,376.581 226.5,377C 224.714,377.785 223.214,378.951 222,380.5C 219.214,377.736 217.048,378.236 215.5,382C 215.667,382.5 215.833,383 216,383.5C 218.456,381.679 221.289,381.012 224.5,381.5C 223.809,387.028 221.642,387.695 218,383.5C 215.771,387.214 216.605,390.048 220.5,392C 216.824,391.846 213.657,390.346 211,387.5C 210.51,386.207 210.343,384.873 210.5,383.5C 206.949,382.232 203.949,380.232 201.5,377.5C 198.686,377.981 197.352,379.648 197.5,382.5C 192.687,377.877 189.687,372.211 188.5,365.5 Z"/></g>
<g><path style="opacity:1" fill="#ba9f9f" d="M 233.5,358.5 C 235.167,358.5 236.833,358.5 238.5,358.5C 244.13,359.292 249.797,359.625 255.5,359.5C 255.52,361.143 254.853,362.476 253.5,363.5C 256.167,365.167 256.167,366.833 253.5,368.5C 255.634,372.974 258.968,375.974 263.5,377.5C 255.512,376.701 247.512,376.035 239.5,375.5C 239.5,375.167 239.5,374.833 239.5,374.5C 239.5,373.167 239.5,371.833 239.5,370.5C 237.058,370.881 236.391,370.214 237.5,368.5C 235.312,366.245 235.646,364.078 238.5,362C 236.654,360.97 234.987,359.804 233.5,358.5 Z"/></g>
<g><path style="opacity:1" fill="#a88d8e" d="M 378.5,378.5 C 380.806,378.993 383.139,379.326 385.5,379.5C 382.063,380.945 378.397,381.945 374.5,382.5C 369.341,383.541 369.341,384.541 374.5,385.5C 370.781,385.998 367.447,385.164 364.5,383C 359.863,379.206 356.197,374.706 353.5,369.5C 356.676,369.755 358.676,371.422 359.5,374.5C 359.782,371.943 359.949,369.277 360,366.5C 362,367.833 364,367.833 366,366.5C 369.955,368.759 372.122,372.092 372.5,376.5C 374.703,376.604 376.703,377.27 378.5,378.5 Z"/></g>
<g><path style="opacity:1" fill="#807b79" d="M 405.5,374.5 C 404.965,376.446 403.632,377.446 401.5,377.5C 400.508,377.328 399.842,377.662 399.5,378.5C 396.833,378.5 394.167,378.5 391.5,378.5C 391.5,378.167 391.5,377.833 391.5,377.5C 392.791,377.737 393.791,377.404 394.5,376.5C 398.262,376.309 401.929,375.642 405.5,374.5 Z"/></g>
<g><path style="opacity:1" fill="#a98b90" d="M 239.5,375.5 C 247.512,376.035 255.512,376.701 263.5,377.5C 266.33,377.963 268.997,378.629 271.5,379.5C 265.155,379.347 258.822,379.014 252.5,378.5C 247.384,377.194 242.051,376.527 236.5,376.5C 235.687,378.887 235.354,381.22 235.5,383.5C 232.167,383.5 228.833,383.5 225.5,383.5C 225.666,388.511 225.499,393.511 225,398.5C 223.301,399.406 221.467,399.739 219.5,399.5C 214.463,394.79 210.129,389.457 206.5,383.5C 204.619,381.266 202.285,379.933 199.5,379.5C 199.931,382.449 201.098,385.116 203,387.5C 206.371,390.703 209.538,394.036 212.5,397.5C 206.521,393.521 201.521,388.521 197.5,382.5C 197.352,379.648 198.686,377.981 201.5,377.5C 203.949,380.232 206.949,382.232 210.5,383.5C 210.343,384.873 210.51,386.207 211,387.5C 213.657,390.346 216.824,391.846 220.5,392C 216.605,390.048 215.771,387.214 218,383.5C 221.642,387.695 223.809,387.028 224.5,381.5C 221.289,381.012 218.456,381.679 216,383.5C 215.833,383 215.667,382.5 215.5,382C 217.048,378.236 219.214,377.736 222,380.5C 223.214,378.951 224.714,377.785 226.5,377C 225.328,376.581 224.328,375.915 223.5,375C 228.828,374.831 234.162,374.998 239.5,375.5 Z"/></g>
<g><path style="opacity:1" fill="#bca0a2" d="M 252.5,378.5 C 255.802,379.472 259.802,380.472 264.5,381.5C 267.79,383.648 268.123,385.981 265.5,388.5C 260.984,389.153 258.484,391.82 258,396.5C 255.96,398.37 254.127,400.37 252.5,402.5C 251.167,403.167 250.167,404.167 249.5,405.5C 246.139,406.669 243.972,405.336 243,401.5C 242.722,402.416 242.222,403.082 241.5,403.5C 241.076,397.776 240.243,392.11 239,386.5C 238.578,384.574 237.411,383.574 235.5,383.5C 235.354,381.22 235.687,378.887 236.5,376.5C 242.051,376.527 247.384,377.194 252.5,378.5 Z"/></g>
<g><path style="opacity:1" fill="#201f1e" d="M 405.5,374.5 C 406.167,374.5 406.833,374.5 407.5,374.5C 408.376,374.369 409.043,374.702 409.5,375.5C 408.754,376.736 408.421,378.07 408.5,379.5C 408.5,379.833 408.5,380.167 408.5,380.5C 405.152,383.851 402.152,387.518 399.5,391.5C 396.159,393.503 392.825,395.503 389.5,397.5C 388.022,397.762 386.689,397.429 385.5,396.5C 388.383,393.891 391.717,392.058 395.5,391C 399.679,388.826 402.346,385.493 403.5,381C 403.138,379.566 402.472,378.399 401.5,377.5C 403.632,377.446 404.965,376.446 405.5,374.5 Z"/></g>
<g><path style="opacity:1" fill="#252524" d="M 389.5,378.5 C 390.167,378.5 390.833,378.5 391.5,378.5C 394.167,378.5 396.833,378.5 399.5,378.5C 399.938,378.435 400.272,378.601 400.5,379C 396.327,382.085 391.66,384.085 386.5,385C 385.809,386.067 385.309,387.234 385,388.5C 384.107,389.081 383.107,389.415 382,389.5C 379.567,388.403 377.4,386.903 375.5,385C 376.5,384.667 377.5,384.333 378.5,384C 376.942,383.79 375.609,383.29 374.5,382.5C 378.397,381.945 382.063,380.945 385.5,379.5C 387.099,379.768 388.432,379.434 389.5,378.5 Z"/></g>
<g><path style="opacity:1" fill="#eef0ee" d="M 428.5,398.5 C 427.844,399.278 427.011,399.944 426,400.5C 423.317,398.15 420.984,395.483 419,392.5C 418.544,391.256 419.044,390.423 420.5,390C 419.975,389.308 419.308,388.808 418.5,388.5C 415.532,390.14 412.865,392.14 410.5,394.5C 408.185,393.446 406.185,391.946 404.5,390C 405.274,386.907 406.607,383.741 408.5,380.5C 408.5,380.167 408.5,379.833 408.5,379.5C 409.222,379.082 409.722,378.416 410,377.5C 417.575,383.356 423.741,390.356 428.5,398.5 Z"/></g>
<g><path style="opacity:1" fill="#373a38" d="M 399.5,378.5 C 399.842,377.662 400.508,377.328 401.5,377.5C 402.472,378.399 403.138,379.566 403.5,381C 402.346,385.493 399.679,388.826 395.5,391C 391.717,392.058 388.383,393.891 385.5,396.5C 386.689,397.429 388.022,397.762 389.5,397.5C 388.081,398.451 386.415,398.784 384.5,398.5C 384.066,395.445 382.399,393.279 379.5,392C 377.461,390.074 375.794,387.907 374.5,385.5C 369.341,384.541 369.341,383.541 374.5,382.5C 375.609,383.29 376.942,383.79 378.5,384C 377.5,384.333 376.5,384.667 375.5,385C 377.4,386.903 379.567,388.403 382,389.5C 383.107,389.415 384.107,389.081 385,388.5C 385.309,387.234 385.809,386.067 386.5,385C 391.66,384.085 396.327,382.085 400.5,379C 400.272,378.601 399.938,378.435 399.5,378.5 Z"/></g>
<g><path style="opacity:1" fill="#ecc2d8" d="M 219.5,399.5 C 221.139,400.473 222.473,401.806 223.5,403.5C 219.345,402.258 215.678,400.258 212.5,397.5C 209.538,394.036 206.371,390.703 203,387.5C 201.098,385.116 199.931,382.449 199.5,379.5C 202.285,379.933 204.619,381.266 206.5,383.5C 210.129,389.457 214.463,394.79 219.5,399.5 Z"/></g>
<g><path style="opacity:1" fill="#d3d3d3" d="M 408.5,380.5 C 406.607,383.741 405.274,386.907 404.5,390C 406.185,391.946 408.185,393.446 410.5,394.5C 408.469,396.522 406.135,398.189 403.5,399.5C 401.246,398.585 399.246,397.252 397.5,395.5C 398.63,394.378 399.297,393.044 399.5,391.5C 402.152,387.518 405.152,383.851 408.5,380.5 Z"/></g>
<g><path style="opacity:1" fill="#dac1c6" d="M 252.5,378.5 C 258.822,379.014 265.155,379.347 271.5,379.5C 280.652,380.494 289.985,380.827 299.5,380.5C 295.048,386.455 290.048,391.955 284.5,397C 281.358,399.904 277.691,401.738 273.5,402.5C 276.077,401.365 278.077,399.531 279.5,397C 277.842,395.337 275.842,394.504 273.5,394.5C 273.714,392.856 273.38,391.356 272.5,390C 270.08,389.71 267.746,389.21 265.5,388.5C 268.123,385.981 267.79,383.648 264.5,381.5C 259.802,380.472 255.802,379.472 252.5,378.5 Z"/></g>
<g><path style="opacity:1" fill="#be8ea2" d="M 235.5,383.5 C 237.411,383.574 238.578,384.574 239,386.5C 240.243,392.11 241.076,397.776 241.5,403.5C 241.5,404.167 241.167,404.5 240.5,404.5C 239.89,403.609 239.557,402.609 239.5,401.5C 239.078,397.121 238.411,392.788 237.5,388.5C 234.628,385.854 231.295,385.021 227.5,386C 226.863,388.243 226.53,390.576 226.5,393C 226.379,396.782 227.046,400.282 228.5,403.5C 229.5,404.167 230.5,404.833 231.5,405.5C 228.659,405.44 225.993,404.774 223.5,403.5C 222.473,401.806 221.139,400.473 219.5,399.5C 221.467,399.739 223.301,399.406 225,398.5C 225.499,393.511 225.666,388.511 225.5,383.5C 228.833,383.5 232.167,383.5 235.5,383.5 Z"/></g>
<g><path style="opacity:1" fill="#f0afd5" d="M 239.5,401.5 C 237.78,399.342 236.947,396.675 237,393.5C 235.028,392.695 233.528,391.361 232.5,389.5C 229.349,393.196 228.682,397.362 230.5,402C 230.164,403.03 229.497,403.53 228.5,403.5C 227.046,400.282 226.379,396.782 226.5,393C 226.53,390.576 226.863,388.243 227.5,386C 231.295,385.021 234.628,385.854 237.5,388.5C 238.411,392.788 239.078,397.121 239.5,401.5 Z"/></g>
<g><path style="opacity:1" fill="#f9c4e2" d="M 239.5,401.5 C 239.557,402.609 239.89,403.609 240.5,404.5C 237.713,405.477 234.713,405.81 231.5,405.5C 230.5,404.833 229.5,404.167 228.5,403.5C 229.497,403.53 230.164,403.03 230.5,402C 228.682,397.362 229.349,393.196 232.5,389.5C 233.528,391.361 235.028,392.695 237,393.5C 236.947,396.675 237.78,399.342 239.5,401.5 Z"/></g>
<g><path style="opacity:1" fill="#a6a9a6" d="M 399.5,391.5 C 399.297,393.044 398.63,394.378 397.5,395.5C 399.246,397.252 401.246,398.585 403.5,399.5C 401.527,400.806 399.861,402.473 398.5,404.5C 393.625,402.794 388.959,400.794 384.5,398.5C 386.415,398.784 388.081,398.451 389.5,397.5C 392.825,395.503 396.159,393.503 399.5,391.5 Z"/></g>
<g><path style="opacity:1" fill="#ceadb9" d="M 265.5,388.5 C 267.746,389.21 270.08,389.71 272.5,390C 273.38,391.356 273.714,392.856 273.5,394.5C 275.842,394.504 277.842,395.337 279.5,397C 278.077,399.531 276.077,401.365 273.5,402.5C 269.273,404.145 264.939,405.645 260.5,407C 251.2,408.473 241.867,408.473 232.5,407C 231.944,406.617 231.611,406.117 231.5,405.5C 234.713,405.81 237.713,405.477 240.5,404.5C 241.167,404.5 241.5,404.167 241.5,403.5C 242.222,403.082 242.722,402.416 243,401.5C 243.972,405.336 246.139,406.669 249.5,405.5C 250.274,406.147 251.274,406.48 252.5,406.5C 261.082,405.261 267.082,400.595 270.5,392.5C 268.235,391.353 265.902,391.186 263.5,392C 260.602,396.4 256.935,399.9 252.5,402.5C 254.127,400.37 255.96,398.37 258,396.5C 258.484,391.82 260.984,389.153 265.5,388.5 Z"/></g>
<g><path style="opacity:1" fill="#f9c8e7" d="M 249.5,405.5 C 250.167,404.167 251.167,403.167 252.5,402.5C 256.935,399.9 260.602,396.4 263.5,392C 265.902,391.186 268.235,391.353 270.5,392.5C 267.082,400.595 261.082,405.261 252.5,406.5C 251.274,406.48 250.274,406.147 249.5,405.5 Z"/></g>
<g><path style="opacity:1" fill="#b2b2b2" d="M 410.5,398.5 C 410.389,399.117 410.056,399.617 409.5,400C 411.219,401.87 412.219,404.037 412.5,406.5C 414.216,406.371 415.883,406.038 417.5,405.5C 417.047,406.458 416.381,407.292 415.5,408C 417.422,409.42 418.755,411.253 419.5,413.5C 420.417,414.127 421.417,414.461 422.5,414.5C 420.708,415.309 418.708,415.809 416.5,416C 417.406,418.221 418.406,420.388 419.5,422.5C 417.716,423.72 416.05,423.72 414.5,422.5C 415.675,422.719 416.675,422.386 417.5,421.5C 415.32,417.801 413.153,414.134 411,410.5C 407.996,408.326 405.163,405.992 402.5,403.5C 405.202,401.78 407.868,400.113 410.5,398.5 Z"/></g>
<g><path style="opacity:1" fill="#dee3de" d="M 429.5,399.5 C 432.706,402.735 435.039,406.568 436.5,411C 435.271,413.599 433.604,415.766 431.5,417.5C 431.247,415.173 431.914,413.173 433.5,411.5C 432.812,410.145 431.812,409.145 430.5,408.5C 429.632,406.598 428.632,404.765 427.5,403C 427.978,401.697 428.645,400.531 429.5,399.5 Z"/></g>
<g><path style="opacity:1" fill="#d1d1d1" d="M 420.5,403.5 C 421.236,405.229 422.57,406.229 424.5,406.5C 426.075,410.59 427.075,414.923 427.5,419.5C 427.5,420.833 426.833,421.5 425.5,421.5C 425.813,418.753 425.48,416.086 424.5,413.5C 423.817,413.863 423.15,414.196 422.5,414.5C 421.417,414.461 420.417,414.127 419.5,413.5C 418.755,411.253 417.422,409.42 415.5,408C 416.381,407.292 417.047,406.458 417.5,405.5C 418.778,405.218 419.778,404.551 420.5,403.5 Z"/></g>
<g><path style="opacity:1" fill="#5a5b5a" d="M 430.5,408.5 C 431.812,409.145 432.812,410.145 433.5,411.5C 431.914,413.173 431.247,415.173 431.5,417.5C 431.5,418.167 431.167,418.5 430.5,418.5C 430.5,415.167 430.5,411.833 430.5,408.5 Z"/></g>
<g><path style="opacity:1" fill="#2e2f2f" d="M 428.5,398.5 C 429.167,398.5 429.5,398.833 429.5,399.5C 428.645,400.531 427.978,401.697 427.5,403C 428.632,404.765 429.632,406.598 430.5,408.5C 430.5,411.833 430.5,415.167 430.5,418.5C 429.791,419.404 428.791,419.737 427.5,419.5C 427.075,414.923 426.075,410.59 424.5,406.5C 423.528,402.429 421.695,398.762 419,395.5C 419.079,397.846 419.912,400.013 421.5,402C 420.944,402.383 420.611,402.883 420.5,403.5C 419.778,404.551 418.778,405.218 417.5,405.5C 419.92,401.912 419.42,398.579 416,395.5C 413.497,394.762 411.663,395.762 410.5,398.5C 407.868,400.113 405.202,401.78 402.5,403.5C 405.163,405.992 407.996,408.326 411,410.5C 413.153,414.134 415.32,417.801 417.5,421.5C 416.675,422.386 415.675,422.719 414.5,422.5C 410.933,420.443 407.766,417.777 405,414.5C 403.004,411.014 400.837,407.681 398.5,404.5C 399.861,402.473 401.527,400.806 403.5,399.5C 406.135,398.189 408.469,396.522 410.5,394.5C 412.865,392.14 415.532,390.14 418.5,388.5C 419.308,388.808 419.975,389.308 420.5,390C 419.044,390.423 418.544,391.256 419,392.5C 420.984,395.483 423.317,398.15 426,400.5C 427.011,399.944 427.844,399.278 428.5,398.5 Z"/></g>
<g><path style="opacity:1" fill="#afafaf" d="M 424.5,406.5 C 422.57,406.229 421.236,405.229 420.5,403.5C 420.611,402.883 420.944,402.383 421.5,402C 419.912,400.013 419.079,397.846 419,395.5C 421.695,398.762 423.528,402.429 424.5,406.5 Z"/></g>
<g><path style="opacity:1" fill="#dddddd" d="M 417.5,405.5 C 415.883,406.038 414.216,406.371 412.5,406.5C 412.219,404.037 411.219,401.87 409.5,400C 410.056,399.617 410.389,399.117 410.5,398.5C 411.663,395.762 413.497,394.762 416,395.5C 419.42,398.579 419.92,401.912 417.5,405.5 Z"/></g>
<g><path style="opacity:1" fill="#303130" d="M 425.5,421.5 C 423.735,422.461 421.735,422.795 419.5,422.5C 418.406,420.388 417.406,418.221 416.5,416C 418.708,415.809 420.708,415.309 422.5,414.5C 423.15,414.196 423.817,413.863 424.5,413.5C 425.48,416.086 425.813,418.753 425.5,421.5 Z"/></g>
</svg>
