<?xml version="1.0" encoding="iso-8859-1"?>
<!-- Generator: Adobe Illustrator 24.0.2, SVG Export Plug-In . SVG Version: 6.00 Build 0)  -->
<svg version="1.1" id="&#x421;&#x43B;&#x43E;&#x439;_1"
	 xmlns="http://www.w3.org/2000/svg" xmlns:xlink="http://www.w3.org/1999/xlink" x="0px" y="0px" viewBox="0 0 24 24"
	 style="enable-background:new 0 0 24 24;" xml:space="preserve">
<path style="opacity:0.3;" d="M12.002,16C5.61,16,1,14.185,1,12s4.613-4,11.002-4S23,9.815,23,12S18.393,16,12.002,16z"/>
<path d="M0,7v10h23.997H24V7H0z M12.002,16C5.61,16,1,14.185,1,12s4.613-4,11.002-4S23,9.815,23,12S18.393,16,12.002,16z"/>
<path id="path840_4_" d="M8.565,10.629c-0.042,0.084-0.042,0.165-0.042,0.248v1.046c0,0,0.561-0.728,0.689-0.901
	c0.098-0.128,0.218-0.31,0.218-0.393h1.83c-0.126,0.084-0.265,0.234-0.379,0.374c-0.1,0.123-0.669,0.817-0.669,0.817
	s0.845,1.286,0.954,1.45c0.061,0.089,0.128,0.173,0.206,0.248H9.265c0-0.084-0.081-0.254-0.17-0.388
	c-0.089-0.134-0.572-0.867-0.572-0.867v1.007c0,0.084,0,0.165,0.042,0.248H6.81c0.042-0.084,0.042-0.165,0.042-0.248v-2.393
	c0-0.084,0-0.165-0.042-0.248H8.565z M15.061,10.629h-3.386c0.042,0.084,0.042,0.165,0.042,0.248v2.393c0,0.084,0,0.165-0.042,0.248
	h3.386v-0.801c-0.084,0.042-0.165,0.042-0.248,0.042h-1.425v-0.379h1.37V11.77h-1.37v-0.382h1.425c0.084,0,0.165,0,0.248,0.039
	L15.061,10.629z M19.753,13.271c0.028,0.092,0.075,0.176,0.137,0.248h-1.835c0.008-0.084-0.022-0.165-0.056-0.248
	c0,0-0.028-0.067-0.067-0.165l-0.017-0.042h-1.057l-0.017,0.045c0,0-0.031,0.081-0.059,0.165c-0.028,0.084-0.059,0.165-0.047,0.248
	h-1.448c0.059-0.073,0.103-0.156,0.131-0.248l0.867-2.393c0.031-0.084,0.061-0.165,0.05-0.248h2.446
	c-0.022,0.084,0.022,0.165,0.053,0.248C18.908,11.062,19.692,13.109,19.753,13.271 M17.683,12.453l-0.257-0.669
	c-0.022-0.061-0.042-0.126-0.056-0.19c-0.011,0.064-0.028,0.128-0.05,0.19c-0.008,0.028-0.117,0.321-0.243,0.669H17.683z
	 M5.937,10.877c0-0.084,0-0.165,0.042-0.248H4.071c0.042,0.084,0.042,0.165,0.042,0.248v2.393c0,0.084,0,0.165-0.042,0.248h1.908
	c-0.042-0.084-0.042-0.165-0.042-0.248V10.877z M19.167,10.858c-0.006,0.209,0.159,0.385,0.371,0.391
	c0.209,0.006,0.385-0.159,0.391-0.371c0-0.006,0-0.014,0-0.02c0.003-0.206-0.159-0.377-0.365-0.379c-0.006,0-0.008,0-0.014,0
	c-0.204-0.008-0.374,0.151-0.379,0.354C19.164,10.841,19.164,10.85,19.167,10.858 M19.851,10.858
	c0.006,0.167-0.128,0.31-0.296,0.312c-0.167,0.006-0.31-0.128-0.312-0.296c0-0.006,0-0.011,0-0.02
	c-0.006-0.162,0.12-0.298,0.282-0.304c0.008,0,0.014,0,0.022,0c0.165-0.003,0.301,0.128,0.304,0.293
	C19.851,10.85,19.851,10.855,19.851,10.858 M19.733,11.087h-0.075l-0.089-0.162h-0.098v0.162h-0.067v-0.457h0.17
	c0.081,0.003,0.142,0.067,0.142,0.148c0,0.056-0.031,0.106-0.081,0.134L19.733,11.087z M19.563,10.858
	c0.045,0.003,0.084-0.031,0.084-0.075c0-0.045-0.031-0.084-0.075-0.084c-0.003,0-0.006,0-0.008,0h-0.092v0.162h0.092"/>
</svg>